<svg xmlns="http://www.w3.org/2000/svg" viewBox="0 0 1500 1000" style="enable-background:new 0 0 1500 1000" xml:space="preserve"><ellipse style="fill:#d6d6d6" cx="389.323" cy="842.951" rx="244.301" ry="15.889"/><path style="fill:#cad7e5" d="M362.407 603.849v75.74c0 1.18.956 2.136 2.136 2.136h.828l51.274-2.81a3.025 3.025 0 0 0 2.859-2.987l.686-68.424a2.596 2.596 0 0 0-2.169-2.589l-53.484-3.617a2.592 2.592 0 0 0-2.13 2.551z"/><path style="fill:#95a4af" d="m418.021 604.915-52.559-3.463.449 1.026a95.85 95.85 0 0 1-1.076 79.247h.537l51.274-2.81a3.025 3.025 0 0 0 2.859-2.987l2.337-10.708c3.007-13.778 3.152-33.324.428-47.161l-2.078-10.555a2.6 2.6 0 0 0-2.171-2.589z"/><path style="fill:#95a4af" d="m393.957 635.725 15.889.662v15.227s12.811 18.064 14.35 37.501h-13.308l-5.677-23.597-6.369-13.573-5.548-.331.663-15.889z"/><path style="fill:#cad7e5" d="M391.309 635.725v16.552h6.621s7.945 15.228 9.931 34.427h-26.482l.028 2.297h30.631s-3.514-26.793-12.121-37.386h-5.959v-15.89h-2.649z"/><path style="fill:#7c8a93" d="M424.197 689.777a.661.661 0 0 1-.659-.61c-1.507-19.034-14.103-36.992-14.23-37.171a.666.666 0 0 1-.122-.383v-14.589l-17.899-.639a.662.662 0 0 1-.638-.685.655.655 0 0 1 .685-.638l18.538.662a.662.662 0 0 1 .639.661v15.021c1.322 1.928 12.893 19.281 14.348 37.656a.663.663 0 0 1-.608.713c-.019.002-.037.002-.054.002z"/><path style="fill:#7c8a93" d="M364.543 682.387a2.802 2.802 0 0 1-2.798-2.798v-75.74a3.254 3.254 0 0 1 2.674-3.203l.113-.02 20.854 1.6c.361.06.604.401.544.762a.656.656 0 0 1-.762.544l-20.618-1.56a1.928 1.928 0 0 0-1.481 1.877v75.74c0 .813.661 1.474 1.474 1.474h.828l41.261-2.262c.355-.047.677.259.697.625a.661.661 0 0 1-.625.697l-41.297 2.263-.864.001z"/><path style="fill:#cad7e5" d="m300.606 684.199.595 5.647 57.061-.304 1.286-5.636z"/><path style="fill:#95a4af" d="m324.48 689.722 33.782-.18 1.286-5.636-35.403.176z"/><path style="fill:#7c8a93" d="M324.617 689.933a.626.626 0 0 1-.626-.602l-.199-4.94a.626.626 0 0 1 .601-.651.62.62 0 0 1 .651.601l.199 4.94a.628.628 0 0 1-.601.652h-.025z"/><path style="fill:#cc8546" d="M254.924 838.316h5.959l-5.959-111.227-12.579.662 8.888 78.124h-42.634l8.587-75.475-12.579-.662-5.958 111.226h5.958l3.465-30.455h43.688z"/><path style="fill:#e6ab6d" d="M239.697 845.599h5.958l-5.958-111.227-12.58.662 8.889 78.124h-45.584l8.889-78.124-12.58-.662-5.958 111.227h5.958l3.164-27.807h46.638z"/><path style="fill:#e6ab6d" d="M182.097 738.344v8.607s39.062 3.972 69.517-1.324l5.959-.662-.662-9.269-74.814 2.648z"/><path style="fill:#c72b76" d="M206.593 717.82s-33.765-2.648-33.765 14.565c0 17.214 87.392 6.621 87.392 6.621s19.862-23.834-53.627-21.186z"/><path style="fill:#b01d6b" d="m236.065 718.473.157.056c35.587 12.626-32.276 20.478-48.166 17.167-15.525-3.234-9.064-13.143-8.759-13.597-3.816 2.2-6.468 5.463-6.468 10.286 0 17.214 87.392 6.621 87.392 6.621s13.782-16.55-24.156-20.533z"/><path style="fill:#ed7565" d="M298.253 543.632c.951-5.056.051-7.725-1.09-7.051-1.141.674-1.191 8.399-1.639 8.787-.448.388-2.764-8.265-4.289-6.944-1.792 1.551 2.539 9.087 2.031 10.31-.508 1.224-3.163-2.747-4.363-1.237-1.201 1.51 5.635 8.194 5.635 8.194l.063.024c-2.495 8.141-11.942 29.378-18.465 34.197 0 0-25.185 6.46-36.101 9.386-10.916 2.926 11.552 31.047 11.552 31.047s30.134-17.146 37.545-28.159c6.684-9.931 9.954-40.443 10.409-47.049 1.893-3.352 5.385-9.844 5.01-11.472-.512-2.221-3.583 3.103-4.031 3.491-.448.388-.042-.591-.042-.591 1.888-5.241 2.355-7.055 1.376-7.462-.979-.406-3.232 6.404-3.579 6.547-.345.142-.022-2.018-.022-2.018z"/><path style="fill:#4c9cd8" d="M217.633 771.849s1.409 1.646-.865 4.542c-2.273 2.896-11.96 14.061-16.609 9.465-6.183-6.113 4.961-12.081 12.383-14.401 5.249-1.642 5.091.394 5.091.394z"/><path style="fill:#368abf" d="M209.111 772.698c-3.04 1.964-8.437 5.694-3.936 7.913 4.932 2.431 11.83-7.275 11.83-7.275l.953-.816c.213.736.232 2.058-1.19 3.87-2.273 2.896-11.96 14.061-16.609 9.465-5.277-5.218 2.071-10.329 8.952-13.157z"/><path style="fill:#ed7565" d="m253.97 840.605 6.712-22.938 5.059 1.664-8.552 21.444z"/><path style="fill:#368abf" d="M253.252 842.771c-.914-.207-1.357-1.27-.833-2.047.784-1.162 2.45-2.549 5.976-2.882 6.324-.597 16.61-.208 17.716 2.01.649 1.302.835 3.257.852 4.937a2.657 2.657 0 0 1-3.246 2.619l-20.465-4.637z"/><path style="fill:#4c9cd8" d="M274.173 843.782c2.212-.054 2.489-1.636 2.328-2.89a6.068 6.068 0 0 0-.391-1.041c-1.09-2.185-11.09-2.594-17.433-2.035-7.836 2.065 12.009 6.052 15.496 5.966z"/><path style="fill:#ed7565" d="m214.826 771.572 15.947-14.351 3.43 4.075-17.296 12.822a1.645 1.645 0 0 1-2.081-2.546z"/><path style="fill:#54315d" d="m293.826 710.127-81.588-26.715-15.162 2.166s-3.616 17.799-3.902 20.6c-1.155 11.326 28.438 25.592 51.563 35.634-11.711 11.326-27.093 25.473-27.093 25.473l3.758 4.731s17.779-11.954 36.038-24.785c8.121 3.438 13.741 5.855 13.989 6.698.944 3.216-16.072 77.9-16.072 77.9l5.768 1.799s32.974-83.387 31.018-87.965c-.591-1.384-6.877-6.223-15.354-12.298 11.194-8.236 19.64-14.982 19.728-16.645.197-3.705-2.691-6.593-2.691-6.593z"/><path style="fill:#462251" d="m244.494 741.707 5.288-4.865s-28.159-10.83-31.047-23.104c-2.888-12.274 17.328-7.942 23.105-4.332 5.776 3.61 21.299 14.801 21.299 14.801s15.523-16.245 24.91-10.469c6.43 3.957-.863 11.454-6.095 15.785 8.529-6.431 14.489-11.406 14.563-12.801.197-3.706-2.691-6.594-2.691-6.594l-81.588-26.715-15.162 2.166s-3.616 17.799-3.902 20.6c-1.151 11.286 28.231 25.492 51.32 35.528zM256.228 832.101c4.121-12.792 19.205-75.496 19.908-79.014.458-2.292-8.664-5.776-5.397-12.236 1.108-2.19 2.573-4.179 3.955-6.207-3.433 2.64-16.231 11.986-17.121 12.645 8.048 3.407 13.61 5.804 13.856 6.641.944 3.216-16.072 77.9-16.072 77.9l.871.271z"/><path style="fill:#361742" d="M275.227 714.981a.72.72 0 0 0-.973-.311c-5.2 2.679-11.364 8.765-11.617 9.017l-45.019 43.59c.309.371.621.74.924 1.116l45.105-43.674c.062-.061 6.268-6.189 11.268-8.765a.721.721 0 0 0 .312-.973z"/><path style="fill:#361742" d="M263.151 723.988c.141-.117.279-.238.418-.357-.006-.005-.009-.012-.015-.016-1.092-.767-26.8-18.825-31.826-21.696a.722.722 0 0 0-.716 1.254c4.671 2.669 28.352 19.267 31.388 21.397.254-.19.508-.379.751-.582z"/><path style="fill:#fff" d="M282.634 615.182c1.43-2.502-8.664-21.661-18.772-26.715-22.383 9.386-42.497 4.32-42.497 4.32l-9.897 1.589s-31.467 9.928-34.87 22.026c-3.404 12.099 17.827 79.262 17.827 79.262s23.075 11.105 55.68-.525c0 0 5.815-22.918 5.093-59.74 23.826-14.441 27.436-20.217 27.436-20.217z"/><path style="fill:#c72b76" d="M245.476 645.517zM245.021 643.938a.197.197 0 0 1 .003.015l-.003-.015zM245.073 644.145l.005.02-.005-.02zM245.125 644.337l.001.004-.001-.004zM245.185 644.555l.005.017-.005-.017z"/><path style="fill:#b01d6b" d="M263.862 588.467c-10.734 4.501-20.939 5.675-28.661 5.682 5.951 2.753 12.851 8.642 16.387 14.534 2.503 4.172 3.534 16.683 3.957 26.503 23.507-14.282 27.089-20.004 27.089-20.004 1.43-2.502-8.664-21.661-18.772-26.715z"/><path style="fill:#e4e4e4" d="M253.023 672.997c-21.948-3.982-29.761-12.393-29.761-12.393-4.661-31.079-19.083-42.967-19.083-42.967l-26.888-2.992a9.764 9.764 0 0 0-.695 1.757c-3.404 12.099 17.827 79.262 17.827 79.262s23.075 11.105 55.68-.525c0 0 2.13-7.709 3.597-19.791l-.677-2.351z"/><path style="fill:#cdcdcd" d="M253.427 675.749a.662.662 0 0 1-.692-.729c3.57-34.969.468-58.425.436-58.658a.663.663 0 0 1 1.313-.179c.032.234 3.156 23.847-.43 58.972a.661.661 0 0 1-.627.594z"/><path style="fill:#ed7565" d="M272.321 676.747c5.144-.081 7.578-1.498 6.689-2.48-.889-.982-8.467.516-8.937.155-.47-.361 7.544-4.364 5.944-5.594-1.879-1.444-8.394 4.309-9.694 4.057-1.301-.252 2.058-3.649.338-4.523-1.72-.874-6.898 7.163-6.898 7.163l-.011.067c-8.476-.813-34.627-3.721-40.655-9.146 0 0-1.444-19.495-6.498-29.603s-27.437 15.884-27.437 15.884 12.274 23.105 24.549 28.159c11.069 4.558 45.034.308 51.598-.57 3.664 1.183 10.723 3.303 12.243 2.609 2.073-.947-3.758-2.889-4.228-3.25-.47-.361.571-.159.571-.159 5.513.8 7.384.893 7.586-.147.202-1.04-6.922-1.883-7.132-2.194s1.972-.428 1.972-.428z"/><path style="fill:#c72b76" d="M216.437 642.511c-1.719-6.328-4.177-13.167-7.678-19.15 0 0-10.034-17.546-22.314-16.903 0 0-12.557 3.176-11.651 22.232.416 8.742 5.08 19.848 11.254 29.79 4.061-3.92 17.886-10.808 30.389-15.969z"/><path style="fill:#ed7565" d="m208.398 565.818 3.383 31.965 11.967-.377-.814-13.94s5.756 2.035 10.101-1.112c3.868-2.802.511-18.789.511-18.789l-25.148 2.253z"/><path style="fill:#54315d" d="M230.191 564.651s8.212 4.9 11.181-6.474c2.97-11.374-20.743-18.894-32.739-9.958s-16.123 9.285-30.498 4.57-24.564 14.819-23.806 24.035c.757 9.216 7.684 8.888 8.306 20.621.622 11.733 8.193 20.338 21.928 17.76 13.736-2.578 17.19-12.341 19.944-19.36 2.754-7.019 2.358-7.188 6.928-11.327s6.181-4.624 6.679-9.092c0 0-4.267 1.226-3.908-2.366.359-3.592 2.244-7.47 5.759-3.633.002-.001 5.318.156 10.226-4.776z"/><path style="fill:#462251" d="M189.048 586.805c17.878-2.198 17.35-27.837 17.35-27.837s12.512 5.794 22.669-3.222c6.744-5.986 3.579-9.038.691-10.414 7.487 2.058 13.159 6.929 11.615 12.844-2.97 11.374-11.181 6.474-11.181 6.474-4.908 4.932-10.224 4.775-10.224 4.775-3.516-3.837-5.4.041-5.759 3.633s3.908 2.366 3.908 2.366c-.498 4.469-2.109 4.953-6.679 9.092-4.571 4.139-4.174 4.308-6.928 11.327-2.754 7.019-6.208 16.782-19.944 19.36-13.736 2.578-21.306-6.028-21.928-17.76-.622-11.733-7.549-11.405-8.306-20.621-.443-5.391 2.86-14.31 8.554-19.843-9.401 12.764 7.393 32.134 26.162 29.826z"/><path style="fill:#e05a5a" d="M217.687 579.851c1.964 1.62 3.711 2.791 5.249 3.636l.386 6.607c-7.216-4.684-5.635-10.243-5.635-10.243z"/><path style="fill:#ed7565" d="M211.467 594.375s-2.258.713-5.629 1.988c2.608 3.763 15.813 21.836 25.533 16.652 8.1-4.32 2.065-14.293-1.493-19.047-5.291-.372-8.513-1.181-8.513-1.181l-9.898 1.588z"/><path style="fill:#7e0e4f" d="M251.418 689.455c.102-.496.208-1.022.316-1.576-31.51 8.011-56.899 1.123-59.602.336l.496 1.635c3.392.901 13.838 3.316 28.244 3.316 8.913-.001 19.342-.929 30.546-3.711z"/><path style="fill:#fff" d="M183.974 654.99c2.354-2.035 13.324-10.924 31.252-16.584a114.92 114.92 0 0 0-.445-1.373c-17.608 5.562-28.651 14.235-31.524 16.672.237.429.474.858.717 1.285z"/><path style="fill:#e4e4e4" d="M259.365 590.17c-.511.175-1.021.348-1.528.509 1.832 1.819 13.567 13.866 19.59 29.544.417-.344.81-.673 1.165-.98-5.752-14.638-16.293-26.07-19.227-29.073z"/><path style="fill:#7e0e4f" d="M185.884 659.224a.72.72 0 0 1-.463-1.276c.357-.297 8.999-7.392 30.519-16a.721.721 0 1 1 .537 1.341c-21.308 8.523-30.045 15.697-30.131 15.769a.726.726 0 0 1-.462.166zM234.8 602.982a.723.723 0 0 0-.449.917c.723 2.11.48 5.309-1.383 7.339-1.758 1.915-4.607 2.45-8.243 1.54-8.061-2.012-16.132-13.518-18.214-16.668-.44.164-.905.34-1.387.525 1.85 2.865 10.328 15.317 19.251 17.544 1.342.336 2.529.478 3.577.478 3.079 0 4.967-1.231 6.079-2.442 2.35-2.56 2.521-6.348 1.686-8.784a.724.724 0 0 0-.917-.449z"/><path style="fill:#cc8546" d="m346.842 705.629-7.427 133.349h7.57l16.518-133.981z"/><path style="fill:#e6ab6d" d="M286.703 698.621h323.749v15.227H286.703z"/><path style="fill:#cc8546" d="M286.703 698.621h323.749v8.607H286.703z"/><path style="fill:#e6ab6d" d="M276.441 689.021h335.004v11.917H276.441zM299.835 709.846l-18.681 137.322h7.569l27.773-137.954z"/><path style="fill:#7e0e4f" d="M282.73 615.863a.662.662 0 0 1-.632-.465c-3.366-10.771-8.307-17.287-11.86-20.856-3.845-3.862-6.936-5.201-6.966-5.214a.662.662 0 0 1 .515-1.22c.525.221 12.939 5.66 19.575 26.896a.662.662 0 0 1-.632.859z"/><path style="fill:#d6e6ed" d="m203.927 536.863-4.461-48.089s-54.482 4.87-43.2-35.247c11.325-40.267 124.111-11.283 50.434 36.045l-2.773 47.291z"/><path style="fill:#5a2960" d="M201.795 456.754c.124.854-.129 1.901-.759 3.142a8.474 8.474 0 0 1-3.111 3.196c-.144.095-.317.206-.519.332l-.217.142-.171.141c-.575.439-.847 1.013-.818 1.722.008.178.074 1.064.2 2.658l.013.31a.716.716 0 0 1-.242.588.666.666 0 0 1-.573.112 7.704 7.704 0 0 0-.669-.06l-.403-.072-.401-.028-1.385-.164-1.517-.16a26.455 26.455 0 0 0-1.512-.026 55.56 55.56 0 0 1-.893-.096l-.447-.07-.491-.068c-.329-.075-.532-.334-.61-.775-.11-.499-.096-1.225.043-2.179l.145-.762.104-.714c.394-1.232 1.243-2.17 2.55-2.817l1.351-.634 1.351-.634c.751-.446 1.313-.824 1.686-1.137.688-.562 1.011-1.345.969-2.351-.072-1.034-.505-1.83-1.298-2.39-.431-.367-1.029-.506-1.796-.415a5.035 5.035 0 0 0-1.931.57c-.697.354-1.072.962-1.124 1.824-.026.09-.035.224-.028.401l.011.266-.031.312c-.04.475-.071.803-.092.981l.013.31-.03.358c-.071.446-.315.65-.731.607a1.156 1.156 0 0 1-.268-.033l-.356-.03-.313-.032-.354.015c-.269-.048-.671-.076-1.203-.083l-.621.026-.625-.063-1.603-.067c-.535-.037-.799-.337-.793-.9-.041-2.399.27-4.544.932-6.438.563-1.446 1.21-2.628 1.942-3.547a5.355 5.355 0 0 1 2.113-1.554c.464-.226 1.149-.492 2.055-.797a6.283 6.283 0 0 1 2.431-.323l1.689.018a4.82 4.82 0 0 1 1.841.457l.496.202.454.204c.693.297 1.393.742 2.099 1.335 1.166.989 2.051 2.329 2.656 4.021.486 1.728.742 3.243.766 4.546l.025.623zm-7.078 13.626.534.023c.506.068.783.322.831.766l.19 1.369.574 3.087c.012.295.003.459-.025.49-.02.238-.176.392-.47.464l-.532.022c-.923-.11-2.239-.04-3.947.208l-.976.041c-.089.004-.461-.01-1.113-.043-.71.03-1.107-.264-1.192-.883l-.172-.926-.017-.4-.064-.486c-.041-.265-.079-.841-.116-1.729-.084-.588.168-.94.756-1.053.794-.151 1.616-.319 2.468-.502l.531-.067.44-.107c.383-.045.647-.086.795-.122l.575-.068c.176-.037.323-.058.442-.063l.488-.021z"/><path style="fill:#d6d6d6" d="M524.304 841.225s-33.96 3.496-15.981 13.984 20.976 11.487 42.95 8.989c21.974-2.497 320.625-42.45 324.12-50.94 4.311-10.47-31.962-17.479-48.443-13.984-16.481 3.497-302.646 41.951-302.646 41.951z"/><path style="fill:#333" d="M841.155 321.532s5.509 1.691 5.977 3.138c.467 1.447.484 50.499-.011 51.937-.495 1.438-4.863 5.725-4.854 4.763.009-.962-1.112-59.838-1.112-59.838zM841.155 382.521s5.509 1.691 5.977 3.138c.467 1.447.484 50.499-.011 51.937-.495 1.438-4.863 5.725-4.854 4.763.009-.962-1.112-59.838-1.112-59.838z"/><path style="fill:#333" d="m843.329 270.692.513 511.192s1.249 30.285-31.404 35.403c-29.74 4.662-219.65 30.787-253.292 35.411-6.13.842-12.391-.651-17.36-4.337-8.108-6.015-17.295-19.196-17.568-48.061a1813.34 1813.34 0 0 1-.058-9.033 6466.59 6466.59 0 0 1-.05-14.608c-.016-6.323-.027-12.645-.036-18.968-.011-7.589-.018-15.178-.024-22.767-.006-8.669-.01-17.338-.013-26.007-.003-9.562-.003-19.124-.003-28.685l.006-30.804c.004-10.787.008-21.575.014-32.362l.02-33.361c.008-11.266.016-22.532.026-33.799.009-11.225.019-22.451.03-33.676l.032-32.994.034-31.75.034-29.947.033-27.584.031-24.66.028-21.176.023-17.132.018-12.527c.012-8.573.932-17.181 4.249-25.192 2.529-6.11 6.409-11.716 11.547-15.879a31.746 31.746 0 0 1 4.435-3.025c5.096-2.859 11.47-4.824 17.252-5.626l11.091-1.54 18.703-2.597 24.488-3.401 28.447-3.95 30.58-4.246 30.886-4.289 29.367-4.078 26.021-3.613a1073808.101 1073808.101 0 0 0 34.7-4.819l5.028-.698c0-.003 41.816-2.322 42.172 35.185z"/><path style="fill:#4d4d4d" d="m843.41 279.245.578 502.799s1.212 29.791-30.35 34.82c-30.742 4.899-238.528 33.686-249.302 35.178a7.99 7.99 0 0 1-1.187.081c-4.497-.043-27.646-2.663-28.113-52.015-.484-51.085.075-482.984.075-482.984s-3.129-35.922 34.024-39.585l233.506-32.912c-.001-.002 40.593-9.281 40.769 34.618z"/><path style="fill:#282828" d="M745.165 827.501a.608.608 0 0 0 .095-.007c36.896-5.219 59.939-8.556 68.491-9.919 16.621-2.649 24.159-12.181 27.555-19.712 3.67-8.138 3.415-15.539 3.403-15.85l-.236-197.892a.721.721 0 0 0-.722-.721h-.006a.72.72 0 0 0-.714.722l.237 197.921c.004.102.249 7.445-3.299 15.278-4.734 10.452-13.631 16.787-26.443 18.829-8.543 1.361-31.579 4.697-68.466 9.915a.721.721 0 0 0 .105 1.436zM535.042 800.828a.721.721 0 0 0 .714-.728c-.478-50.497.069-478.658.075-482.977a.664.664 0 0 0-.003-.063c-.007-.089-.719-8.96 3.049-18.132 5.024-12.229 15.227-19.185 30.328-20.673 9.371-.924 29.745-3.75 60.556-8.399a.722.722 0 0 0-.215-1.426c-30.787 4.645-51.136 7.468-60.482 8.39-19.55 1.928-27.943 12.816-31.541 21.611-3.805 9.299-3.19 18.022-3.134 18.722-.008 5.96-.552 432.556-.074 482.961a.72.72 0 0 0 .727.714z"/><path style="fill:#d6e6ed" d="m823.962 275.542-270.036 37.251a6.672 6.672 0 0 0-5.691 6.615l1.504 504.045c.009 4.064 3.618 7.175 7.639 6.586l270.947-39.689a6.673 6.673 0 0 0 5.705-6.63l-2.415-501.607c-.018-4.064-3.633-7.168-7.653-6.571z"/><path style="fill:#282828" d="m724.583 267.06-63.532 9.756a5.074 5.074 0 0 0-4.304 5.064l.009.892a5.074 5.074 0 0 0 5.844 4.968l63.532-9.756a5.074 5.074 0 0 0 4.304-5.064l-.008-.892a5.075 5.075 0 0 0-5.845-4.968z"/><path style="fill:#1a1a1a" d="M661.883 288.519c.275-.003.551-.025.826-.067l63.532-9.756a.722.722 0 0 0-.219-1.427l-63.532 9.756a4.344 4.344 0 0 1-3.479-.986 4.35 4.35 0 0 1-1.534-3.276l-.008-.892a4.376 4.376 0 0 1 3.692-4.344.722.722 0 0 0-.219-1.427c-2.83.435-4.943 2.921-4.916 5.784l.008.892a5.791 5.791 0 0 0 2.042 4.361 5.775 5.775 0 0 0 3.807 1.382z"/><path style="fill:#333" d="m634.132 265.701-48.726 6.627s-.962-.021-2.383-1.014-4.528-3.036-4.734-3.471c-.46-.972 1.506-2.853 3.45-3.772.554-.262 35.321-4.695 42.654-5.615.87-.109 1.761-.119 2.6.137 2.469.753 5.299 1.744 6.273 2.761 1.41 1.473 3.281 3.918.866 4.347z"/><path style="fill:#4d4d4d" d="M585.171 272.082s1.537-4.295 2.499-4.274c.961.021 41.985-6.294 42.946-6.273.962.021 4.253 3.46 3.281 3.92-.972.459-48.726 6.627-48.726 6.627z"/><path style="fill:#1a1a1a" d="M582.61 271.905c-.303-.212-.683-.472-1.096-.754-2.953-2.018-3.677-2.578-3.877-3a.723.723 0 0 1 1.273-.676c.321.368 2.331 1.742 3.418 2.485.417.285.802.548 1.108.762 1.039.726 1.781.859 1.949.88l48.649-6.616a.721.721 0 0 1 .195 1.429l-48.726 6.627a.847.847 0 0 1-.113.007c-.12-.003-1.224-.058-2.78-1.144zm-3.668-4.371v-.001.001z"/><path style="fill:#282828" d="M534.726 734.165a.72.72 0 0 0 .389-1.325l-11.138-7.274a.721.721 0 0 0-.789 1.208l11.138 7.274c.123.08.263.118.4.117z"/><ellipse style="fill:#fbae2b" cx="691.237" cy="568.023" rx="116.707" ry="151.232"/><path style="fill:#f5735d" d="M1150.303 452.901c.533-.357 1.345-.266 1.756.238.262.321.528 1.286 1.036 1.012.132-.072.261-.411.335-.538.521-.899.154-8.318 2.796-8.047 2.89.297-.944 11.743-.479 13.299.466 1.556 3.566-3.047 4.841-1.054s-7.901 9.286-7.901 9.286l-.08.022c2.021 10.242 10.878 37.328 18.228 44.023 0 0 29.904 11.039 42.85 15.978 12.946 4.938-17.985 36.414-17.985 36.414s-34.599-24.693-42.255-39.053c-6.905-12.951-7.065-50.573-6.79-58.687.018-.524-.641-1.486-.848-1.976a154.36 154.36 0 0 1-.936-2.268c-.286-.711-.783-1.556-.88-2.318-.081-.64.033-1.526.206-2.143.179-.641.576-1.253 1.18-1.532.183-.085.385-.14.538-.273.224-.195.289-.51.365-.798.166-.628.565-1.318 1.214-1.357.744-.045 1.469.804 2.119.439.215-.121.344-.349.519-.524a.969.969 0 0 1 .171-.143z"/><path style="fill:#e85653" d="M1145.807 463.816a154.36 154.36 0 0 1-.936-2.268c-.286-.711-.783-1.556-.88-2.318a4.807 4.807 0 0 1 .007-1.064c.042.106.069.216.116.32a9.541 9.541 0 0 0 1.172 1.961c.286.364.644.729 1.104.778a.725.725 0 0 0 .484-.106.76.76 0 0 0 .294-.493 1.895 1.895 0 0 0-.007-.587 8.592 8.592 0 0 0-.582-2.193c-.172-.417-.383-.861-.281-1.301.08 0 .132.083.165.156.302.656.523 1.348.831 2.002.308.654.718 1.282 1.311 1.695.136.095.285.179.449.202.308.043.464-.16.589-.408.205-.406.173-.887.118-1.338-.144-1.17-.409-2.321-.673-3.47.448.699.644 1.525.915 2.309.271.785.658 1.581 1.349 2.04.246.163.538.28.832.25 1.018-.105.854-1.743.747-2.436a8.397 8.397 0 0 0-.434-1.687c.538.836 1.044 1.733 1.308 2.698.202.739.258 1.635-.146 2.311-.178.298-.463.709-.757.893-.111-.183-.616-.18-.813-.204a5.772 5.772 0 0 0-1.043-.038c-.618.039-1.236.204-1.758.537a5.866 5.866 0 0 0-.586.445l-.663.547c-.27.222-.542.447-.759.722-.397.502-.578 1.137-.659 1.774-.128-.54-.637-1.308-.814-1.729z"/><path style="fill:#80034f" d="M1154.209 468.753c2.872 12.932 9.812 25.309 15.477 33.83 4.729 7.113 12.228 11.929 20.647 13.369 6.705 1.147 13.025 2.317 18.968 3.552a287.915 287.915 0 0 1-11.537 17.324 264.156 264.156 0 0 1-10.374 13.452c-2.254 2.744-4.592 5.465-7.185 7.904-8.868-1.436-19.844-4.556-25.453-11.343-15.825-19.149-9.047-78.089-9.047-78.089 4.477-3.006 8.504.001 8.504.001z"/><ellipse style="fill:#d6d6d6" cx="1231.113" cy="891.014" rx="130.927" ry="18.554"/><path style="fill:#3c95df" d="M1288.809 892.734a9.35 9.35 0 0 1-1.95.347c-4.508.319-28.167 1.812-28.753-1.999-.648-4.213 6.726-13.966 24.63-7.13 14.248 5.441 8.823 7.982 6.073 8.782z"/><path style="fill:#1d84c4" d="M1282.736 883.953a44.008 44.008 0 0 0-2.379-.832c3.446 3.522-2.995 7.961-13.177 7.961-6.257 0-8.101-1.589-8.435-3.108-.566 1.142-.773 2.242-.64 3.108.586 3.811 24.245 2.318 28.753 1.999a9.285 9.285 0 0 0 1.95-.347c2.751-.8 8.176-3.341-6.072-8.781z"/><path style="fill:#eb544f" d="m1287.999 886.253-9.125-31.549a1.311 1.311 0 0 0-1.578-.908l-3.86.965a1.311 1.311 0 0 0-.92 1.706l9.996 28.559a4.262 4.262 0 0 0 3.491 2.821l.573.072a1.311 1.311 0 0 0 1.423-1.666z"/><path style="fill:#3c95df" d="M1202.605 892.734a9.35 9.35 0 0 1-1.95.347c-4.508.319-28.167 1.812-28.753-1.999-.648-4.213 6.726-13.966 24.63-7.13 14.248 5.441 8.823 7.982 6.073 8.782z"/><path style="fill:#1d84c4" d="M1196.531 883.953a44.311 44.311 0 0 0-2.379-.832c3.446 3.522-2.995 7.961-13.177 7.961-6.257 0-8.101-1.589-8.435-3.108-.566 1.142-.773 2.242-.64 3.108.586 3.811 24.246 2.318 28.753 1.999a9.297 9.297 0 0 0 1.95-.347c2.752-.8 8.177-3.341-6.072-8.781z"/><path style="fill:#f87258" d="m1201.795 886.253-1.995-36.086a1.311 1.311 0 0 0-1.578-.908l-3.86.965a1.311 1.311 0 0 0-.92 1.706l2.866 33.096a4.262 4.262 0 0 0 3.491 2.821l.573.072a1.311 1.311 0 0 0 1.423-1.666z"/><path style="fill:#5a2960" d="M1254.355 640.734s2.593 98.843 1.945 111.158c-.648 12.315 24.63 106.297 24.63 106.297s2.593-1.62 3.241.324c.648 1.945 4.213 9.722.648 11.019-3.565 1.296-11.019 4.537-11.991 2.268-.972-2.268-5.509-11.018 0-11.991 0 0-38.565-90.417-41.482-104.352-2.917-13.935-8.75-48.611-8.75-48.611s-19.445 50.88-20.093 53.473c-.648 2.593-.972 100.139-.972 100.139s3.241-.324 3.565 1.944c.324 2.269 1.296 9.074-1.296 9.722-2.593.648-13.935 2.268-14.583 0-.648-2.269-2.593-11.343 3.565-11.667 0 0-16.852-100.139-15.88-109.862.972-9.722 13.611-108.241 13.611-108.241l63.842-1.62z"/><path style="fill:#4c1854" d="M1222.596 706.845s6.319-18.958 8.426-31.111c0 0 22.523.81 23.555-26.324.613 24.382 2.253 92.404 1.723 102.481-.648 12.315 24.63 106.297 24.63 106.297s2.593-1.62 3.241.324c.648 1.945 4.213 9.722.648 11.019-3.565 1.296-11.019 4.537-11.991 2.268-.972-2.268-5.509-11.018 0-11.991 0 0-38.565-90.417-41.482-104.352-2.917-13.935-8.75-48.611-8.75-48.611z"/><path style="fill:#3a0d45" d="M1231.103 675.682a.81.81 0 0 1 1.597.275c-.026.148-2.35 13.369-9.538 34.233-.358-2.104-.567-3.345-.567-3.345l-.064.168c6.436-19.187 8.548-31.19 8.572-31.331zM1273.979 860.064l-.055.001a.81.81 0 0 1-.031-1.619c.038-.002 3.125-.192 6.603-1.874l.427 1.594c-3.643 1.702-6.78 1.889-6.944 1.898z"/><path style="fill:#f87258" d="m1223.421 492.083-9.378 23.456-14.609 1.392 6.435-11.295s-8.094 1.182-11.543-4.401c-3.071-4.97 9.065-24.396 9.065-24.396l20.03 15.244z"/><path style="fill:#e85653" d="M1085.695 555.554v-11.329l-11.329-.944v2.833l7.553 10.384z"/><path style="fill:#333" d="M1102.306 550.706c.242-.17 1.021-.614 1.157-.878.508-.819-11.008-35.845-11.008-35.845-.566-1.455-22.135-6.825-22.475-6.584a7.225 7.225 0 0 0-1.088.518c-1.571.935-1.634 1.695-1.085 3.63l8.254 35.492c.502 1.765 24.481 4.907 26.245 3.667z"/><path style="fill:#4d4d4d" d="m1078.997 546.044-9.506-38.412c.165-.076.322-.168.491-.234.34-.24 21.909 5.129 22.475 6.584 0 0 10.785 33.121 11.014 35.692-7.683.362-24.474-3.63-24.474-3.63z"/><path style="fill:#fff" d="m1080.862 544.179 21.444 3.729-11.188-33.565-19.58-5.594z"/><path style="fill:#f5735d" d="M1084.751 554.61s-2.832-6.608-3.776-8.496c0 0 3.563-6.608.944-6.608s-6.106 5.966-6.106 5.966l-2.41-9.684c-.932 1.865-2.415 7.955-1.676 9.432.873 1.746 3.492 6.111 5.238 6.984 1.746.873 5.238 5.238 5.238 5.238l2.548-2.832z"/><path style="fill:#d4e6ed" d="m1074.335 512.478.932 4.662 11.189 2.797-.932-4.662z"/><path style="fill:#fbae2b" d="m1092.983 524.599-10.257-2.797.933 3.729 10.256 1.865z"/><path style="fill:#d4e6ed" d="m1078.064 529.261 10.257.932.932 3.73-10.256-.933z"/><path style="fill:#fbae2b" d="m1086.456 536.72 11.188 1.865 1.865 5.594-11.188-1.865z"/><path style="fill:#ca2276" d="M1078.638 554.824s12.192 61.886 55.165 57.672c16.147-1.583 30.297-24.425 30.297-24.425s15.394 37.107 20.903 55.255c0 0 25.278 24.63 73.241-3.889 0 0 13.529-73.318 3.241-102.408-9.398-26.574-57.879-23.588-72.269-20.093-21.414 5.201-36.792 23.386-62.436 54.031-4.213 5.034-11.167 6.896-17.29 4.53-6.909-2.67-13.941-7.772-21.657-24.017-.001.001-6.687-1.671-9.195 3.344z"/><path style="fill:#b01d6b" d="M1175.767 564.09s5.185 65.787 52.176 64.167c21.122-.728 31.243-15.404 35.986-31.341-2.072 22.939-5.685 42.521-5.685 42.521-47.963 28.519-73.241 3.889-73.241 3.889-5.366-17.676-20.106-53.33-20.87-55.175 3.579-5.947 7.824-14.042 11.634-24.061z"/><path style="fill:#ffb000" d="M1264.476 590.257a421.88 421.88 0 0 1-.502 6.158c-43.324-1.203-81.632 8.431-91.957 11.288-.746-1.892-1.469-3.712-2.156-5.433 40.155-14.148 86.13-12.468 94.615-12.013z"/><path style="fill:#f39500" d="M1187.79 603.875c-7.288 1.564-12.738 2.988-15.773 3.828-.746-1.892-1.469-3.712-2.156-5.433a179.544 179.544 0 0 1 14.822-4.489 77.668 77.668 0 0 0 3.107 6.094z"/><path style="fill:#ffb000" d="M1175.475 616.582c35.422-11.558 74.296-11.384 87.578-10.917a528.19 528.19 0 0 1-.721 6.232c-37.751-.541-71.151 6.882-84.691 10.379a958.847 958.847 0 0 0-2.166-5.694z"/><path style="fill:#f39500" d="M1193.087 611.785a49.657 49.657 0 0 0 5.451 5.878c-8.96 1.679-16.15 3.387-20.897 4.613l-.005-.013c-.355-.944-.713-1.889-1.072-2.834l-.005-.013a998.81 998.81 0 0 0-1.084-2.836c5.82-1.898 11.734-3.478 17.612-4.795zM1260.688 605.594c.858.022 1.65.046 2.365.071l-.012.108a452.594 452.594 0 0 1-.328 2.909l-.037.318-.153 1.306-.028.237-.134 1.114-.029.241a279.327 279.327 0 0 0-5.089-.025 49.715 49.715 0 0 0 3.445-6.279z"/><path style="fill:#5a2960" d="M1209.529 496.791s1.286 13.165 10.983 12.385c9.696-.78 10.043-12.094 10.043-12.094s3.851 3.979 4.685 2.223c.834-1.757-3.697-3.548-3.697-3.548s7.399.282 7.17-3.772c-.229-4.054-5.841-2.054-5.841-2.054s2.475-13.532-12.685-24.672c-15.161-11.139-30.557 8.458-8.34 24.38 0 0 7.448-2.265 5.747 4.52-2.412 9.619-8.065 2.632-8.065 2.632z"/><path style="fill:#4c1854" d="M1231.542 495.758s4.531 1.791 3.697 3.548c-.834 1.757-4.685-2.223-4.685-2.223s-.347 11.314-10.043 12.094c-9.696.78-10.983-12.385-10.983-12.385s5.653 6.987 8.064-2.631c1.701-6.786-5.747-4.52-5.747-4.52-11.771-8.436-12.983-17.902-9.267-23.283-3.081 9.575 14.359 23.757 22.337 24.464 5.875.52 7.294-4.37 7.544-8.038.943 4.236.411 7.149.411 7.149s5.612-2 5.841 2.054c.23 4.053-7.169 3.771-7.169 3.771z"/><path style="fill:#f87258" d="M1188.772 517.05c.148-.037.296-.077.444-.113 6.182-1.501 18.31-3.079 31.622-1.917-4.23 1.351-14.569 3.696-32.066 2.03z"/><path style="fill:#80034f" d="M1234.924 640.333c12.616-3.602 22.136-9.319 25.023-11.168-.114.739-.225 1.445-.331 2.116-3.913 2.39-12.82 7.341-24.199 10.596-7.461 2.134-14.768 3.209-21.788 3.209-1.496 0-2.981-.049-4.45-.147-9.37-.625-18.162-3.261-26.189-7.834-.262-.771-.533-1.558-.812-2.36 8.235 5.034 17.337 7.922 27.08 8.576 8.166.549 16.801-.457 25.666-2.988zM1130.212 613.485c11.653 0 22.548-7.32 32.388-21.76 7.845-11.512 12.74-24.369 14.48-29.362a.835.835 0 1 0-1.578-.55c-2.923 8.385-18.878 50.182-45.49 50-38.387-.293-50.236-56.204-50.351-56.769a.835.835 0 0 0-1.638.334c.03.144 3.026 14.573 10.847 28.84 10.426 19.02 24.649 29.141 41.13 29.266l.212.001z"/><path style="fill:#d6e6ed" d="m1232.734 457.754-5.237-56.458s-63.964 5.717-50.717-41.381c13.296-47.275 145.709-13.246 59.211 42.317l-3.257 55.522z"/><path style="fill:#5a2960" d="M1230.23 363.704c.146 1.003-.151 2.232-.891 3.689a9.949 9.949 0 0 1-3.653 3.752 29.79 29.79 0 0 1-.609.39l-.255.167-.2.165c-.676.515-.995 1.189-.96 2.022.009.209.086 1.249.234 3.121l.015.364a.84.84 0 0 1-.285.691.778.778 0 0 1-.673.131 9.01 9.01 0 0 0-.786-.071l-.473-.084-.47-.033-1.626-.193-1.782-.188c-.906-.031-1.498-.042-1.775-.03a64.267 64.267 0 0 1-1.048-.112l-.525-.083-.577-.08c-.386-.088-.625-.392-.716-.91-.129-.585-.112-1.438.051-2.558l.17-.895.122-.839c.462-1.446 1.459-2.547 2.994-3.307l1.586-.745 1.586-.744c.882-.524 1.542-.968 1.98-1.334.808-.66 1.186-1.579 1.137-2.76-.085-1.214-.593-2.149-1.524-2.806-.506-.431-1.208-.594-2.108-.487a5.9 5.9 0 0 0-2.267.669c-.818.416-1.259 1.13-1.32 2.141-.03.106-.041.263-.033.471l.013.312-.036.367c-.047.558-.083.943-.109 1.152l.015.364-.035.42c-.083.524-.37.764-.858.713a1.353 1.353 0 0 1-.315-.039l-.418-.035-.367-.037-.416.017c-.316-.056-.787-.089-1.413-.098l-.729.03-.733-.074-1.882-.078c-.628-.043-.938-.396-.93-1.057-.048-2.816.317-5.335 1.094-7.559.661-1.697 1.42-3.085 2.28-4.164a6.291 6.291 0 0 1 2.481-1.825c.545-.266 1.349-.578 2.413-.935a7.373 7.373 0 0 1 2.854-.379l1.983.021a5.677 5.677 0 0 1 2.162.536l.583.238.533.239c.814.348 1.635.871 2.465 1.567 1.369 1.161 2.408 2.734 3.118 4.721.57 2.029.871 3.807.9 5.337l.028.732zm-8.309 15.997.627.027c.594.08.919.378.976.899l.223 1.608.673 3.624c.015.346.004.539-.029.575-.023.279-.207.461-.552.545l-.625.026c-1.084-.129-2.629-.047-4.633.244l-1.145.048c-.105.005-.541-.012-1.306-.051-.833.035-1.3-.31-1.4-1.037l-.202-1.087-.02-.469-.075-.57c-.048-.311-.093-.988-.137-2.03-.099-.691.197-1.104.887-1.236.932-.178 1.897-.374 2.897-.59l.623-.078.516-.125c.449-.053.76-.101.933-.143l.676-.08c.207-.043.38-.068.518-.074l.575-.026z"/><path style="fill:#ca2276" d="M780.941 659.854c-.307-6.303-10.099-11.078-15.909-13.363-8.465-3.33-16.928-4.858-17.012-4.872l1.324-7.44c.375.067 9.295 1.677 18.454 5.28 13.337 5.247 20.298 11.984 20.691 20.028l-7.548.367z"/><path style="fill:#7e0e4f" d="M776.558 653.191a.374.374 0 0 1-.24-.086c-3.389-2.795-8.083-4.948-11.424-6.262-8.382-3.298-16.856-4.837-16.939-4.852a.379.379 0 0 1 .13-.745c.084.015 8.597 1.554 17.086 4.893 3.391 1.334 8.162 3.524 11.628 6.382a.378.378 0 0 1-.241.67z"/><path style="fill:#7e0e4f" d="M757.046 644.091a.377.377 0 0 1-.193-.723c.168-.072 4.098-1.818 2.509-6.48a.377.377 0 1 1 .716-.243c1.819 5.336-2.881 7.399-2.928 7.419a.4.4 0 0 1-.104.027zM772.221 650.186a.379.379 0 0 1-.056-.746c.179-.04 4.365-1.022 3.673-5.899a.378.378 0 0 1 .748-.106c.792 5.581-4.21 6.732-4.261 6.743-.034.008-.07.01-.104.008z"/><path style="fill:#ca2276" d="M775.453 585.208c-5.582 0-9.422-.321-9.965-.369l.666-7.528h.001c.183.016 11.622.984 24.282-.522 11.165-1.329 25.617-4.878 31.064-14.24 11.254-19.343 6.388-50.46 6.338-50.773l7.459-1.212c.225 1.382 5.362 34.082-7.265 55.786-9.6 16.503-37.465 18.858-52.58 18.858z"/><path style="fill:#7e0e4f" d="M775.453 585.586c-5.646 0-9.569-.333-9.998-.371a.377.377 0 1 1 .067-.752c.426.038 4.318.368 9.932.368 7.308 0 18.144-.56 28.261-3.228 11.764-3.102 19.836-8.298 23.993-15.442 3.503-6.021 5.952-13.472 7.279-22.145a.378.378 0 1 1 .746.115c-1.341 8.767-3.821 16.307-7.372 22.41-9.642 16.571-37.287 19.045-52.908 19.045z"/><path style="fill:#7e0e4f" d="M775.069 585.373a.378.378 0 0 1-.37-.65c.144-.112 3.506-2.794.792-6.904a.377.377 0 1 1 .631-.416c3.107 4.704-.92 7.886-.961 7.918a.382.382 0 0 1-.092.052zM790.561 584.617a.378.378 0 0 1-.37-.65c.144-.112 3.506-2.794.792-6.904a.377.377 0 1 1 .631-.416c3.107 4.704-.92 7.886-.961 7.918a.364.364 0 0 1-.092.052zM809.726 580.348a.378.378 0 0 1-.568-.487c.098-.155 2.354-3.815-1.591-6.765a.378.378 0 0 1 .453-.605c4.515 3.375 1.803 7.733 1.775 7.776a.337.337 0 0 1-.069.081zM826.017 569.773a.378.378 0 0 1-.739-.117c.002-.183.004-4.483-4.902-4.926a.377.377 0 1 1 .068-.752c5.615.506 5.59 5.639 5.589 5.691 0 .036-.006.07-.016.104zM833.823 552.883a.378.378 0 0 1-.704.253c-.086-.161-2.155-3.932-6.667-1.958a.378.378 0 0 1-.302-.693c5.165-2.259 7.614 2.252 7.638 2.298a.36.36 0 0 1 .035.1zM836.2 538.349a.377.377 0 0 1-.662.348c-.107-.148-2.672-3.6-6.872-1.028a.377.377 0 1 1-.394-.645c4.808-2.944 7.85 1.189 7.881 1.232.019.03.035.061.047.093zM836.61 521.134a.377.377 0 0 1-.606.439c-.128-.131-3.161-3.179-6.949-.031a.379.379 0 0 1-.483-.581c4.335-3.604 7.94.05 7.976.087a.368.368 0 0 1 .062.086z"/><circle transform="rotate(-60.053 758.604 580.327)" style="fill:#4c9cd8" cx="758.617" cy="580.34" r="10.958"/><path style="fill:#368abf" d="M769.076 577.07a8.314 8.314 0 1 1-13.999-7.103c-4.027 1.377-7.051 5.045-7.388 9.557-.45 6.035 4.077 11.292 10.112 11.743 6.035.45 11.292-4.077 11.743-10.112a10.922 10.922 0 0 0-.468-4.085z"/><path style="fill:#145d76" d="M757.774 591.644a11.346 11.346 0 0 1-6.998-3.118.378.378 0 1 1 .523-.546 10.6 10.6 0 0 0 6.531 2.91c5.818.434 10.904-3.946 11.338-9.764.434-5.818-3.946-10.904-9.764-11.338a10.597 10.597 0 0 0-1.709.009.378.378 0 1 1-.065-.753c.604-.052 1.22-.055 1.83-.01 6.233.465 10.926 5.914 10.461 12.148-.464 6.234-5.914 10.927-12.147 10.462z"/><path style="fill:#4c9cd8" d="M752.54 635.947c.45-6.035-4.077-11.293-10.112-11.743-6.035-.45-11.293 4.077-11.743 10.112-.45 6.035 4.077 11.293 10.112 11.743 6.036.451 11.293-4.077 11.743-10.112z"/><path style="fill:#368abf" d="M752.071 631.862a8.311 8.311 0 0 1-8.855 7.178 8.314 8.314 0 0 1-7.672-8.908 8.281 8.281 0 0 1 2.529-5.373 10.96 10.96 0 0 0-7.388 9.557c-.45 6.035 4.077 11.293 10.112 11.743 6.035.45 11.292-4.077 11.743-10.112a10.922 10.922 0 0 0-.469-4.085z"/><path style="fill:#145d76" d="M740.769 646.437a11.351 11.351 0 0 1-6.998-3.118.379.379 0 0 1 .523-.545 10.6 10.6 0 0 0 6.531 2.91c5.818.434 10.904-3.946 11.338-9.764.434-5.818-3.946-10.904-9.764-11.338a10.832 10.832 0 0 0-1.709.009.378.378 0 1 1-.065-.753c.604-.052 1.22-.056 1.83-.01 6.233.465 10.926 5.914 10.461 12.148s-5.913 10.925-12.147 10.461z"/><path style="fill:#4c9cd8" d="M619.969 558.782c-.378 1.889 4.912 109.957 72.927 112.98 68.014 3.023 69.526-112.98 69.526-112.98H619.969z"/><ellipse style="fill:#368abf" cx="691.196" cy="558.782" rx="71.226" ry="12.469"/><path style="fill:#368abf" d="M728.004 558.782c-4.446 3.933-5.597 7.784.002 10.824 19.239 10.446 2.677 83.263-35.487 84.396-38.164 1.134-59.702-39.297-64.236-61.213-4.534-21.916 6.802-26.36 6.802-26.36l-5.854-7.647h-9.261c-.378 1.889 4.912 109.957 72.927 112.98 68.014 3.023 69.526-112.98 69.526-112.98h-34.419z"/><path style="fill:#145d76" d="M695.484 672.197c-.859 0-1.724-.019-2.605-.058-19.099-.849-35.054-10.041-47.419-27.32a.378.378 0 1 1 .614-.439c12.224 17.081 27.982 26.167 46.838 27.005 47.021 2.083 62.056-53.423 66.833-86.699a.377.377 0 1 1 .748.108c-4.723 32.908-19.443 87.403-65.009 87.403z"/><path style="fill:#361742" d="M717.407 558.215c0 2.4-11.143 4.345-24.889 4.345-13.746 0-24.889-1.945-24.889-4.345 0-2.4 11.143-4.345 24.889-4.345 13.746 0 24.889 1.945 24.889 4.345z"/><path style="fill:#4c9cd8" d="M706.499 535.885v30.454h-28.34v-32.992z"/><path style="fill:#368abf" d="m706.499 535.885-.398-.036-11.694 4.418s5.417 26.782-16.248 16.109v9.963h28.339v-30.454z"/><path style="fill:#1e7aa6" d="M694.235 560.201c-8.693 0-16.287-1.111-16.398-1.128a.378.378 0 1 1 .112-.748c.164.024 16.522 2.416 28.633.137a.377.377 0 1 1 .14.742c-3.951.745-8.344.997-12.487.997zM694.235 556.045c-8.693 0-16.287-1.111-16.398-1.128a.378.378 0 1 1 .112-.748c.164.024 16.522 2.416 28.633.136a.376.376 0 0 1 .441.302.377.377 0 0 1-.301.441c-3.951.744-8.344.997-12.487.997zM694.235 551.888c-8.693 0-16.287-1.111-16.398-1.128a.378.378 0 1 1 .112-.748c.164.024 16.522 2.416 28.633.137a.377.377 0 1 1 .14.742c-3.951.745-8.344.997-12.487.997zM694.235 548.11c-8.693 0-16.287-1.111-16.398-1.128a.378.378 0 1 1 .112-.748c.164.024 16.522 2.416 28.633.136a.377.377 0 1 1 .14.743c-3.951.744-8.344.997-12.487.997zM694.235 543.953c-8.693 0-16.287-1.111-16.398-1.128a.378.378 0 1 1 .112-.748c.164.024 16.522 2.416 28.633.136a.376.376 0 0 1 .441.302.377.377 0 0 1-.301.441c-3.951.745-8.344.997-12.487.997z"/><path style="fill:#145d76" d="M692.518 562.938c-12.249 0-25.267-1.655-25.267-4.723 0-1.074 1.432-1.975 4.38-2.755a.377.377 0 1 1 .193.731c-3.542.937-3.817 1.786-3.817 2.024 0 1.621 8.729 3.968 24.511 3.968 10.409 0 19.755-1.138 23.255-2.833a.378.378 0 1 1 .329.681c-3.593 1.738-13.071 2.907-23.584 2.907z"/><path style="fill:#4c9cd8" d="M626.771 383.833c0 1.889 3.401 103.155 3.401 103.155s1.134 56.301 64.992 54.412 56.301-66.881 54.789-129.983l-108.823 4.156-11.336-32.496-3.023.756z"/><path style="fill:#4c9cd8" d="M641.129 415.573s74.627 6.235 112.413-4.723 36.652-55.923-5.29-35.896c0 0 7.179-47.232-52.144 6.424 0 0-4.854-46.235-58.35 24.682l3.371 9.513z"/><circle style="fill:#4c9cd8" cx="626.204" cy="376.465" r="10.202"/><path style="fill:#368abf" d="M635.761 372.892a8.69 8.69 0 1 1-17.011-3.39 10.165 10.165 0 0 0-2.749 6.963c0 5.634 4.568 10.202 10.202 10.202 5.635 0 10.202-4.568 10.202-10.202a10.155 10.155 0 0 0-.644-3.573z"/><path style="fill:#368abf" d="m749.953 411.417-6.955.266c2.13 41.957-9.469 103.398-41.033 107.802-32.496 4.534-55.167-16.626-62.725-37.03-6.71-18.116-9.584-79.718-10.144-93.309 0 0 1.229-.02 2.602-.611l-1.904-5.457-3.023.756c0 1.889 3.401 103.155 3.401 103.155s1.134 56.301 64.992 54.412 56.3-66.882 54.789-129.984z"/><path style="fill:#4c9cd8" d="M656.969 430.903s77.047-2.068 91.919-3.126c14.857-1.057 15.257 10.186 15.061 18.497-.196 8.311.097 27.972-10.947 31.491-11.044 3.52-87.51 8.521-99.7-3.483-12.191-12.003-14.474-43.428 3.667-43.379z"/><path style="fill:#368abf" d="m756.747 456.609-78.357 1.786a4.657 4.657 0 0 1-4.762-4.55l-.02-.894a4.656 4.656 0 0 1 4.55-4.762l78.357-1.786a4.657 4.657 0 0 1 4.762 4.55l.02.894a4.658 4.658 0 0 1-4.55 4.762z"/><path style="fill:#361742" d="m755.137 454.898-77.44 1.765a4.157 4.157 0 0 1-.189-8.311l77.44-1.765a4.157 4.157 0 0 1 .189 8.311z"/><path style="fill:#145d76" d="M678.281 458.774a5 5 0 0 1-3.476-1.395 5 5 0 0 1-1.555-3.526l-.021-.894a5.04 5.04 0 0 1 4.919-5.149l78.357-1.786a5.01 5.01 0 0 1 3.593 1.393 4.996 4.996 0 0 1 1.555 3.526l.021.894c.015.672-.1 1.328-.343 1.949a.378.378 0 0 1-.703-.276 4.281 4.281 0 0 0 .292-1.656l-.021-.894a4.254 4.254 0 0 0-1.322-2.997 4.257 4.257 0 0 0-3.054-1.184l-78.357 1.786a4.254 4.254 0 0 0-2.997 1.322 4.251 4.251 0 0 0-1.184 3.054l.02.894a4.254 4.254 0 0 0 1.322 2.997 4.253 4.253 0 0 0 3.054 1.184l32.634-.744a.375.375 0 0 1 .386.369.376.376 0 0 1-.369.386l-32.634.744c-.039.003-.078.003-.117.003z"/><path style="fill:#368abf" d="M670.602 476.031c-9.824-3.023-15.492-20.026-14.737-31.362.636-9.541 6.731-13.088 8.645-13.972-4.698.131-7.542.207-7.542.207-18.141-.049-15.858 31.375-3.668 43.38 12.19 12.004 88.656 7.002 99.7 3.483 2.64-.841 4.632-2.607 6.138-4.918-11.83 6.205-76.428 6.907-88.536 3.182zM637.758 406.059l3.372 9.514s74.627 6.235 112.413-4.723c19.675-5.706 28.797-20.632 27.1-30.802-.796 6.853-8.547 21.967-36.736 25.323-31.74 3.779-34.763-11.336-34.763-11.336s-34.385 19.271-51.011 13.981c-12.3-3.914-10.123-12.79-8.158-17.144-3.761 4.334-7.824 9.363-12.217 15.187z"/><path style="fill:#145d76" d="M687.649 417.689c-25.199 0-46.157-1.706-46.551-1.739a.377.377 0 0 1-.345-.408.376.376 0 0 1 .408-.345c.746.062 74.99 6.104 112.276-4.71 11.376-3.299 17.902-9.216 21.374-13.599 4.335-5.473 6.325-11.588 5.459-16.778a.379.379 0 0 1 .746-.125c.901 5.4-1.145 11.732-5.612 17.372-3.54 4.469-10.188 10.5-21.756 13.855-17.646 5.118-43.512 6.477-65.999 6.477zM626.204 387.045c-5.834 0-10.58-4.746-10.58-10.58a.378.378 0 1 1 .756 0c0 5.417 4.407 9.824 9.824 9.824a9.886 9.886 0 0 0 8.852-5.558.377.377 0 1 1 .68.328c-1.755 3.637-5.497 5.986-9.532 5.986z"/><path style="fill:#1e7aa6" d="M673.058 528.742h-.014c-.107-.004-10.834-.488-19.902-9.557a.378.378 0 0 1-.102-.184c-.026-.117-2.657-11.883-3.032-23.498a.377.377 0 0 1 .633-.29c.09.083 9.123 8.28 19.485 10.87a.378.378 0 0 1 .285.335c.011.136 1.153 13.672 3.015 21.863a.382.382 0 0 1-.077.325.379.379 0 0 1-.291.136zm-19.303-10.014c7.744 7.692 16.656 9.009 18.824 9.22-1.664-7.622-2.729-19.287-2.896-21.2-8.812-2.286-16.612-8.476-18.885-10.401.444 10.665 2.7 21.212 2.957 22.381z"/><path style="fill:#1e7aa6" d="M669.084 507.891c.057.308-.063.588-.268.626-.205.038-.418-.181-.475-.488-.057-.308.063-.588.268-.626s.418.18.475.488zM652.081 498.444c.057.308-.063.588-.268.626-.205.038-.418-.181-.475-.488-.057-.308.063-.588.268-.626.205-.038.418.181.475.488zM671.455 526.208c.057.308-.063.588-.268.626-.205.038-.418-.181-.475-.488-.057-.308.063-.588.268-.626.205-.039.418.18.475.488zM655.104 517.715c.057.308-.063.588-.268.626-.205.038-.418-.181-.475-.488-.057-.308.063-.588.268-.626.205-.038.418.18.475.488zM700.543 482.236c-16.102 0-40.841-1.121-47.507-7.684-8.284-8.158-12.129-25.563-7.912-35.815 2.21-5.373 6.291-8.212 11.802-8.212h.044c.453-.012 46.69-1.257 74.107-2.297a.378.378 0 0 1 .029.755c-27.421 1.041-73.663 2.285-74.126 2.298h-.041c-6.555 0-9.661 4.209-11.115 7.744-4.118 10.011-.354 27.014 7.743 34.989 2.965 2.92 13.41 7.772 50.012 7.454 21.508-.185 43.772-2.298 49.309-4.062a.378.378 0 0 1 .23.72c-5.6 1.785-27.319 3.906-49.532 4.098-.972.008-1.99.012-3.043.012z"/><path style="fill:#fbae2b" d="M691.384 452.037c0 1.628-1.015 2.947-2.267 2.947s-2.267-1.32-2.267-2.947c0-1.628 1.015-2.947 2.267-2.947 1.253-.001 2.267 1.319 2.267 2.947zM738.617 450.903c0 1.628-1.015 2.947-2.267 2.947s-2.267-1.319-2.267-2.947c0-1.628 1.015-2.947 2.267-2.947s2.267 1.319 2.267 2.947z"/><path style="fill:#145d76" d="M692.069 541.824c-15.636 0-28.709-3.604-38.894-10.731a.377.377 0 1 1 .433-.619c10.716 7.498 24.695 11.052 41.543 10.548 16.424-.486 28.698-5.095 37.523-14.09 7.65-7.798 12.68-18.96 15.38-34.125a.378.378 0 1 1 .744.132c-2.727 15.319-7.824 26.611-15.584 34.521-8.968 9.142-21.411 13.825-38.04 14.317-1.046.032-2.081.047-3.105.047z"/><path style="fill:#368abf" d="M636.82 584.758c1.359 10.484-9.672 11.432-9.672 11.432l2.645 9.069c15.871-3.779 7.027-20.501 7.027-20.501z"/><path style="fill:#1e7aa6" d="M691.196 571.629c-31.708 0-59.955-3.739-68.692-9.093a.378.378 0 0 1 .394-.645c8.63 5.288 36.714 8.982 68.297 8.982 22.662 0 43.442-1.824 57.013-5.004a.378.378 0 0 1 .172.735c-13.624 3.194-34.467 5.025-57.184 5.025z"/><path style="fill:#1e7aa6" d="M701.209 667.605a.378.378 0 0 1-.356-.503c16.645-47.404 13.368-93.277 13.121-96.382l-9.216-7.105a.379.379 0 0 1 .461-.599l9.348 7.207a.382.382 0 0 1 .146.265c.043.473 4.063 47.854-13.147 96.863a.378.378 0 0 1-.357.254zM717.078 576.006c-.013.313-.193.559-.401.55-.208-.009-.367-.27-.354-.582.013-.313.193-.559.401-.55.209.009.367.269.354.582z"/><path style="fill:#1e7aa6" d="M712.922 584.303c-.013.313-.193.559-.401.55-.208-.009-.367-.269-.354-.582.013-.313.193-.559.401-.551.209.01.367.27.354.583zM717.079 591.86c-.013.313-.193.559-.401.55-.208-.009-.367-.269-.354-.582.013-.313.193-.559.401-.55.208.009.367.269.354.582zM712.922 599.402c-.013.313-.193.559-.401.55-.209-.009-.367-.269-.354-.582.013-.313.193-.559.401-.55.209.008.368.269.354.582zM715.646 608.552c-.019.312-.204.555-.412.542-.208-.013-.361-.277-.342-.589.019-.312.204-.555.412-.542.208.013.361.277.342.589zM711.331 616.394c-.019.312-.204.555-.412.542-.208-.013-.361-.277-.342-.589.019-.312.204-.555.412-.542.208.012.361.276.342.589zM713.623 625.25c-.039.31-.238.541-.445.515-.207-.026-.343-.299-.304-.609.039-.311.239-.541.445-.515.206.026.343.299.304.609zM708.444 632.877c-.039.31-.239.541-.445.515-.207-.026-.343-.299-.304-.609s.238-.541.445-.515c.206.025.342.298.304.609zM710.655 640.579c-.051.309-.259.532-.465.498-.206-.034-.332-.312-.281-.621s.259-.532.465-.498c.206.034.332.312.281.621zM706.493 657.611c-.074.304-.299.51-.502.461-.203-.05-.307-.336-.232-.64.074-.304.299-.51.502-.461.202.05.306.336.232.64zM705.187 649.179c-.051.309-.259.532-.465.498-.206-.034-.332-.312-.281-.62.051-.309.259-.532.465-.498.206.033.332.311.281.62zM700.644 664.334c-.084.301-.315.5-.516.444-.201-.056-.296-.346-.211-.648.084-.301.315-.5.516-.444.201.056.295.346.211.648z"/><circle style="fill:#4c9cd8" cx="626.771" cy="589.388" r="10.958"/><path style="fill:#368abf" d="M636.957 585.35a8.312 8.312 0 1 1-14.488-6.042c-3.913 1.672-6.656 5.556-6.656 10.08 0 6.052 4.906 10.958 10.958 10.958s10.958-4.906 10.958-10.958a10.92 10.92 0 0 0-.772-4.038z"/><path style="fill:#145d76" d="M626.771 600.724c-2.627 0-5.188-.919-7.211-2.589a.378.378 0 1 1 .481-.583 10.597 10.597 0 0 0 6.73 2.416c5.834 0 10.58-4.746 10.58-10.58s-4.746-10.58-10.58-10.58c-.571 0-1.144.046-1.703.137a.378.378 0 0 1-.12-.746 11.448 11.448 0 0 1 1.824-.146c6.25 0 11.336 5.085 11.336 11.336s-5.087 11.335-11.337 11.335z"/><path style="fill:#4c9cd8" d="M665.054 646.932c-1.749-5.794-7.864-9.072-13.658-7.323-5.794 1.749-9.072 7.864-7.323 13.658 1.75 5.793 7.864 9.072 13.658 7.322 5.794-1.748 9.072-7.863 7.323-13.657z"/><path style="fill:#368abf" d="M663.147 643.289a8.312 8.312 0 1 1-15.616-1.596 10.96 10.96 0 0 0-3.458 11.574c1.75 5.793 7.864 9.072 13.658 7.322 5.794-1.749 9.072-7.864 7.323-13.658a10.931 10.931 0 0 0-1.907-3.642z"/><path style="fill:#145d76" d="M657.84 660.952c-2.515.759-5.232.62-7.651-.394a.379.379 0 0 1 .292-.698 10.594 10.594 0 0 0 7.141.367c5.585-1.686 8.756-7.602 7.07-13.187-1.686-5.585-7.602-8.756-13.187-7.07-.547.165-1.082.375-1.591.623a.378.378 0 0 1-.331-.679c.545-.266 1.119-.49 1.704-.667 5.984-1.807 12.322 1.591 14.129 7.575 1.806 5.985-1.592 12.323-7.576 14.13z"/><path style="fill:#ca2276" d="M617.589 591.08c-.444 0-.896-.079-1.337-.246-4.07-1.541-14.429-6.018-22.689-14.296-10.62-10.643-14.116-23.926-10.109-38.412 1.872-6.768 4.337-13.709 6.721-20.422 5.114-14.398 10.401-29.287 10.421-43.815.022-16.231-6.408-29.801-20.235-42.706a3.779 3.779 0 1 1 5.157-5.525c15.256 14.239 22.66 30.019 22.636 48.241-.021 15.824-5.53 31.334-10.857 46.334-2.447 6.891-4.759 13.4-6.559 19.908-3.286 11.88-.535 22.33 8.175 31.059 7.222 7.238 16.403 11.199 20.015 12.566a3.779 3.779 0 0 1-1.339 7.314z"/><path style="fill:#7e0e4f" d="M602.259 506.128a.378.378 0 0 1-.361-.493c2.728-8.577 5.861-19.935 5.876-31.737.013-9.643-2.012-18.4-6.189-26.77a.378.378 0 1 1 .676-.338c4.232 8.478 6.282 17.345 6.269 27.109-.016 11.906-3.168 23.337-5.912 31.965a.375.375 0 0 1-.359.264zM617.589 591.457a4.15 4.15 0 0 1-1.471-.27c-4.093-1.549-14.511-6.052-22.823-14.383-7.961-7.979-11.941-17.298-11.83-27.701a.378.378 0 0 1 .378-.374h.004a.378.378 0 0 1 .374.382c-.109 10.192 3.796 19.329 11.609 27.159 8.208 8.226 18.508 12.677 22.556 14.209a3.38 3.38 0 0 0 1.203.221 3.418 3.418 0 0 0 3.181-2.198 3.41 3.41 0 0 0-1.36-4.077.379.379 0 0 1 .403-.639 4.169 4.169 0 0 1 1.663 4.984 4.175 4.175 0 0 1-3.887 2.687z"/><path style="fill:#7e0e4f" d="M611.495 589.105a.377.377 0 0 1-.105-.74c.176-.052 4.287-1.313 3.27-6.132a.378.378 0 0 1 .74-.156c1.164 5.516-3.749 6.999-3.799 7.013a.366.366 0 0 1-.106.015zM600.617 582.893a.378.378 0 0 1-.043-.747c.179-.037 4.381-.953 3.767-5.839a.378.378 0 0 1 .75-.094c.703 5.593-4.317 6.664-4.368 6.674a.38.38 0 0 1-.106.006zM589.959 573.062a.378.378 0 0 1 .257-.702c.179.037 4.399.865 5.776-3.864a.378.378 0 1 1 .725.212c-1.575 5.413-6.608 4.403-6.658 4.392a.472.472 0 0 1-.1-.038zM582.524 558.047a.378.378 0 0 1 .498-.558c.153.101 3.767 2.432 6.796-1.453a.378.378 0 1 1 .595.465c-3.467 4.445-7.768 1.645-7.811 1.616a.326.326 0 0 1-.078-.07zM582.608 539.981a.377.377 0 0 1 .715-.221c.079.165 1.973 4.026 6.571 2.261a.377.377 0 1 1 .27.705c-5.263 2.021-7.503-2.597-7.525-2.644a.407.407 0 0 1-.031-.101zM587.143 525.623a.377.377 0 0 1 .715-.221c.079.165 1.973 4.026 6.571 2.26a.377.377 0 1 1 .27.705c-5.263 2.02-7.503-2.597-7.525-2.644a.331.331 0 0 1-.031-.1zM592.055 511.642a.377.377 0 0 1 .715-.221c.079.165 1.973 4.026 6.571 2.261a.378.378 0 0 1 .271.705c-5.263 2.02-7.503-2.597-7.525-2.644a.349.349 0 0 1-.032-.101zM596.589 497.283a.377.377 0 0 1 .715-.221c.079.165 1.973 4.026 6.571 2.261a.378.378 0 0 1 .271.705c-5.263 2.02-7.503-2.597-7.525-2.644a.371.371 0 0 1-.032-.101zM599.822 482.193a.377.377 0 0 1 .658-.355c.109.147 2.714 3.568 6.884.948a.378.378 0 1 1 .402.64c-4.773 3-7.864-1.098-7.894-1.14a.4.4 0 0 1-.05-.093zM599.835 466.611a.377.377 0 0 1 .548-.509c.143.115 3.526 2.769 6.901-.819a.378.378 0 1 1 .55.518c-3.862 4.107-7.886.921-7.927.888a.439.439 0 0 1-.072-.078zM596.745 454.095a.377.377 0 0 1 .388-.639c.169.071 4.148 1.702 6.416-2.67a.378.378 0 1 1 .67.349c-2.596 5.004-7.336 3.036-7.384 3.016a.403.403 0 0 1-.09-.056zM589.172 441.241a.378.378 0 0 1 .16-.731c.183.013 4.475.267 5.204-4.604a.38.38 0 0 1 .748.112c-.835 5.575-5.957 5.25-6.009 5.246a.386.386 0 0 1-.103-.023z"/><path style="fill:#145d76" d="m805.036 665.05-.508-9.318a2.832 2.832 0 0 0-2.989-2.143l-35.058 4.072c-1.504.153-2.412 1.383-2.169 2.589l-.407 9.216 41.131-4.416z"/><path style="fill:#4c9cd8" d="m764.313 660.249-.407 9.216 1.307-.14c-.653-2.419.123-8.002.033-8.881a1.457 1.457 0 0 1 .202-.921c.26-.432.731-.693 1.232-.744l4.428-.451-.106-1.039-4.52.371c-1.504.153-2.413 1.383-2.169 2.589z"/><path style="fill:#fff" d="M828.925 655.891c0 .97.101 97.017.101 97.017l-90.032 12.939.061-18.305-10.916-26.159 10.951 15.741.228-68.295 89.607-12.938z"/><path style="fill:#d6d6d6" d="M738.994 766.475a.627.627 0 0 1-.088-1.246l89.494-12.862-.101-96.474a.627.627 0 0 1 1.254 0l.101 97.016a.627.627 0 0 1-.537.621l-90.032 12.94a.978.978 0 0 1-.091.005z"/><path style="fill:#e6e6e6" d="m764.906 675.009 40.526-6.267.418-9.609-40.868 5.992z"/><path style="fill:#4c9cd8" d="m807.668 664.782-.508-9.318a2.832 2.832 0 0 0-2.989-2.143l-37.683 4.397.05 11.48 41.13-4.416z"/><path style="fill:#1e7aa6" d="M807.841 664.615a.378.378 0 0 1-.745.12c-.014-.063.104-7.47-.384-9.553-.413-1.762-2.76-1.582-2.86-1.574l-36.268 4.315a.378.378 0 1 1-.065-.753l36.268-4.315c1.069-.095 3.211.233 3.661 2.154.489 2.087.372 9.498.386 9.561l.007.045z"/><path style="fill:#145d76" d="M797.825 659.826c.011 2.209 1.572 3.992 3.486 3.982 1.914-.009 3.457-1.808 3.446-4.017-.011-2.209-1.572-3.992-3.486-3.982-1.914.009-3.457 1.808-3.446 4.017z"/><path style="fill:#4fff32" d="M798.467 659.822c.008 1.559 1.109 2.817 2.46 2.81 1.351-.007 2.44-1.276 2.432-2.835-.008-1.559-1.109-2.817-2.46-2.81s-2.44 1.276-2.432 2.835z"/><path style="fill:#02c700" d="M800.256 661.257c1.009-.005 1.822-.953 1.816-2.116-.006-1.101-.742-2-1.676-2.09.162-.04.331-.062.503-.063 1.351-.007 2.453 1.252 2.46 2.81.008 1.559-1.081 2.828-2.432 2.835-1.351.007-2.453-1.252-2.46-2.81 0-.058.004-.116.007-.173.196.925.92 1.611 1.782 1.607z"/><path style="fill:#ffb002" d="m751.933 720.8.11 12.716a4.04 4.04 0 0 0 4.581 3.969l62.297-8.42a4.041 4.041 0 0 0 3.499-3.962l.126-12.362a4.04 4.04 0 0 0-4.557-4.048l-62.533 8.067a4.038 4.038 0 0 0-3.523 4.04z"/><path style="fill:#fff" d="M775.67 720.377a.785.785 0 0 1-.104-1.563l41.873-5.631a.785.785 0 1 1 .209 1.556l-41.873 5.631a.926.926 0 0 1-.105.007zM757.134 722.87a.785.785 0 0 1-.104-1.563l10.176-1.368a.786.786 0 0 1 .209 1.557l-10.176 1.368a1.255 1.255 0 0 1-.105.006zM791.128 723.409a.785.785 0 0 1-.104-1.564l26.19-3.522a.786.786 0 0 1 .209 1.557l-26.19 3.522a.941.941 0 0 1-.105.007zM757.178 727.974a.785.785 0 0 1-.104-1.564l19.273-2.592a.786.786 0 0 1 .209 1.557l-19.273 2.592a.75.75 0 0 1-.105.007zM782.202 729.326a.785.785 0 0 1-.104-1.564l22.616-3.041a.785.785 0 1 1 .209 1.556l-22.616 3.041a.619.619 0 0 1-.105.008zM757.219 732.686a.785.785 0 0 1-.104-1.563l13.614-1.831a.785.785 0 1 1 .209 1.557l-13.614 1.831a.937.937 0 0 1-.105.006z"/><path style="fill:#d6e6ed" d="m745.247 686.594.095 12.715a4.04 4.04 0 0 0 4.568 3.975l54.195-7.144a4.041 4.041 0 0 0 3.512-3.959l.141-12.368a4.04 4.04 0 0 0-4.54-4.055l-54.431 6.796a4.042 4.042 0 0 0-3.54 4.04z"/><path style="fill:#fff" d="M787.56 683.594a.786.786 0 0 1-.103-1.564l14.335-1.911a.786.786 0 0 1 .207 1.557l-14.335 1.911a.737.737 0 0 1-.104.007zM750.752 688.5a.786.786 0 0 1-.103-1.564l27.401-3.652a.785.785 0 1 1 .207 1.557l-27.401 3.652a.924.924 0 0 1-.104.007zM772.251 690.744a.786.786 0 0 1-.103-1.564l29.378-3.915a.785.785 0 1 1 .207 1.557l-29.378 3.915a.717.717 0 0 1-.104.007zM750.79 693.605a.786.786 0 0 1-.103-1.564l11.524-1.536a.784.784 0 1 1 .207 1.557l-11.524 1.536a.893.893 0 0 1-.104.007zM750.826 698.317a.786.786 0 0 1-.103-1.564l13.585-1.811a.785.785 0 1 1 .207 1.557l-13.585 1.811a.924.924 0 0 1-.104.007z"/><path style="fill:#c7294d" d="M822.399 660.852c-1.92-.343-3.798 1.181-4.195 3.404-.397 2.223.838 4.303 2.757 4.646 1.92.343 3.798-1.181 4.195-3.404.397-2.223-.837-4.303-2.757-4.646zm1.326 5.14-.922.922-1.191-1.177-1.233 1.37-.979-.979 1.229-1.362-1.192-1.177.942-.942 1.136 1.136 1.234-1.368.975.975-1.233 1.37 1.234 1.232z"/><path style="fill:#fdae04" d="M813.849 661.967c-1.92-.343-3.798 1.181-4.195 3.404-.397 2.223.837 4.303 2.758 4.646 1.92.343 3.798-1.181 4.195-3.404.397-2.223-.837-4.303-2.758-4.646zm1.326 4.397-4.089.743v-1.487l4.089-.743v1.487z"/><path style="fill:#145d76" d="m851.891 498.962-.508 9.318a2.832 2.832 0 0 1-2.989 2.143l-35.058 5.752c-1.504-.153-2.412-1.383-2.169-2.589l-.407-9.216 41.131-5.408z"/><path style="fill:#4c9cd8" d="m811.167 514.343-.407-9.972 1.161-.378c-.145 2.126.236 10.836.38 11.076.26.432.731.693 1.232.744l4.811-.863-.378 1.134-4.631.848c-1.503-.153-2.169-1.226-2.168-2.589z"/><path style="fill:#fff" d="M920.745 254.983c0 1.134-1.889 241.452-1.889 241.452l-120.915 15.114.312-199.227-33.764 25.941 33.786-40.265.044-27.902 122.426-15.113z"/><path style="fill:#d6d6d6" d="M853.094 505.282a.627.627 0 0 1-.077-1.248l65.216-8.152c.098-12.459 1.779-226.244 1.88-240.188L798.395 270.72a.626.626 0 0 1-.153-1.244l122.426-15.114a.628.628 0 0 1 .704.622c0 1.123-1.871 239.053-1.89 241.457a.627.627 0 0 1-.549.617l-65.76 8.22c-.027.002-.053.004-.079.004z"/><path style="fill:#e6e6e6" d="m855.775 504.32-.022-8.641-43.832 6.046v8.077z"/><path style="fill:#4c9cd8" d="m854.522 499.23-.508 9.318a2.832 2.832 0 0 1-2.989 2.143l-37.592 5.77-.041-11.823 41.13-5.408z"/><path style="fill:#1e7aa6" d="M854.695 499.397a.378.378 0 0 0-.745-.12c-.014.063.104 7.47-.384 9.553-.413 1.762-2.76 1.582-2.86 1.573l-36.646 5.887a.378.378 0 1 0-.065.753l36.646-5.887c1.069.095 3.211-.233 3.661-2.154.489-2.087.372-9.498.386-9.561a.31.31 0 0 0 .007-.044z"/><path style="fill:#145d76" d="M843.782 505.658c.011 2.209 1.572 3.992 3.486 3.982 1.914-.01 3.457-1.808 3.446-4.017-.011-2.209-1.572-3.992-3.486-3.982-1.914.01-3.457 1.808-3.446 4.017z"/><path style="fill:#4fff32" d="M844.424 505.655c.008 1.559 1.109 2.817 2.46 2.81 1.351-.007 2.44-1.276 2.432-2.835-.008-1.559-1.109-2.817-2.46-2.811-1.35.008-2.439 1.277-2.432 2.836z"/><path style="fill:#02c700" d="M846.214 507.089c1.009-.005 1.822-.953 1.816-2.116-.005-1.101-.742-2-1.676-2.09.162-.04.331-.062.503-.063 1.351-.007 2.453 1.252 2.46 2.811s-1.081 2.828-2.432 2.835c-1.351.007-2.453-1.252-2.46-2.81 0-.059.004-.116.007-.173.196.925.92 1.611 1.782 1.606z"/><path style="fill:#d8e7ee" d="M808.683 301.415v12.719a4.04 4.04 0 0 0 4.552 4.007l76.675-9.803a4.04 4.04 0 0 0 3.527-3.931l.233-12.354a4.04 4.04 0 0 0-4.531-4.086l-76.908 9.439a4.038 4.038 0 0 0-3.548 4.009z"/><path style="fill:#fff" d="M841.519 300.116a.784.784 0 0 1-.097-1.565l45.306-5.694a.785.785 0 0 1 .196 1.558l-45.306 5.694a.66.66 0 0 1-.099.007zM814.965 303.453a.785.785 0 0 1-.097-1.565l15.03-1.888a.785.785 0 0 1 .196 1.558l-15.031 1.889a.818.818 0 0 1-.098.006zM867.147 302a.784.784 0 0 1-.097-1.565l19.678-2.473a.785.785 0 0 1 .196 1.558l-19.678 2.473a.824.824 0 0 1-.099.007zM814.965 308.558a.785.785 0 0 1-.097-1.565l37.738-4.743a.785.785 0 0 1 .196 1.558l-37.739 4.743a.655.655 0 0 1-.098.007zM830.969 311.259a.784.784 0 0 1-.097-1.564l31.574-3.968a.785.785 0 0 1 .196 1.558l-31.573 3.968a.851.851 0 0 1-.1.006zM814.965 313.27a.786.786 0 0 1-.097-1.565l8.166-1.026a.786.786 0 0 1 .196 1.558l-8.166 1.026a.678.678 0 0 1-.099.007z"/><path style="fill:#d8e7ee" d="M893.763 472.232v-12.718a4.04 4.04 0 0 0-4.552-4.007l-76.675 9.803a4.04 4.04 0 0 0-3.527 3.931l-.233 12.354a4.04 4.04 0 0 0 4.531 4.086l76.908-9.439a4.04 4.04 0 0 0 3.548-4.01z"/><path style="fill:#fff" d="M815.619 480.796a.786.786 0 0 1-.098-1.565l45.306-5.694a.785.785 0 0 1 .196 1.558l-45.306 5.694a.637.637 0 0 1-.098.007zM872.449 473.653a.785.785 0 0 1-.098-1.565l15.031-1.889a.785.785 0 0 1 .196 1.558l-15.03 1.889a.66.66 0 0 1-.099.007zM815.619 475.691a.786.786 0 0 1-.098-1.565l19.678-2.473a.786.786 0 0 1 .196 1.558l-19.678 2.473a.637.637 0 0 1-.098.007zM849.741 471.403a.784.784 0 0 1-.097-1.565l37.739-4.743a.785.785 0 0 1 .196 1.558l-37.738 4.743a.682.682 0 0 1-.1.007zM839.902 467.927a.784.784 0 0 1-.097-1.565l31.574-3.968a.785.785 0 0 1 .196 1.558L840 467.921a.818.818 0 0 1-.098.006zM879.314 462.974a.785.785 0 0 1-.098-1.565l8.166-1.026a.785.785 0 0 1 .196 1.558l-8.166 1.026a.655.655 0 0 1-.098.007z"/><path style="fill:#ffb002" d="M839.619 332.361v12.716a4.04 4.04 0 0 0 4.546 4.008l62.367-7.882a4.041 4.041 0 0 0 3.533-3.932l.233-12.36a4.04 4.04 0 0 0-4.521-4.087l-62.601 7.526a4.04 4.04 0 0 0-3.557 4.011z"/><path style="fill:#fff" d="M863.366 332.143a.784.784 0 0 1-.097-1.565l41.92-5.269a.785.785 0 0 1 .196 1.558l-41.92 5.269a.678.678 0 0 1-.099.007zM844.808 334.475a.785.785 0 0 1-.098-1.565l10.188-1.28a.785.785 0 1 1 .196 1.558l-10.188 1.28a.637.637 0 0 1-.098.007zM878.796 335.308a.784.784 0 0 1-.097-1.565l26.22-3.295a.785.785 0 0 1 .196 1.558l-26.22 3.296a.822.822 0 0 1-.099.006zM844.808 339.58a.786.786 0 0 1-.098-1.565l19.295-2.425a.785.785 0 0 1 .196 1.558l-19.295 2.425a.637.637 0 0 1-.098.007zM869.82 341.148a.786.786 0 0 1-.098-1.565l22.642-2.846a.785.785 0 0 1 .196 1.558l-22.641 2.846a.66.66 0 0 1-.099.007zM844.808 344.292a.785.785 0 0 1-.098-1.565l13.629-1.713a.785.785 0 1 1 .195 1.558l-13.629 1.713a.615.615 0 0 1-.097.007z"/><path style="fill:#ffb002" d="M826.858 360.201v12.72a4.04 4.04 0 0 0 4.546 4.008l74.742-9.43a4.04 4.04 0 0 0 3.534-3.932l.233-12.356a4.04 4.04 0 0 0-4.524-4.087l-74.975 9.067a4.038 4.038 0 0 0-3.556 4.01z"/><path style="fill:#fff" d="M874.244 357.125a.784.784 0 0 1-.097-1.565l30.252-3.802a.785.785 0 0 1 .196 1.558l-30.252 3.802a.669.669 0 0 1-.099.007zM832.635 362.355a.784.784 0 0 1-.097-1.565l28.117-3.534a.785.785 0 0 1 .196 1.558l-28.117 3.534a.66.66 0 0 1-.099.007zM856.337 364.481a.784.784 0 0 1-.097-1.565l48.159-6.053a.786.786 0 0 1 .196 1.558l-48.159 6.053a.66.66 0 0 1-.099.007zM832.635 367.46a.784.784 0 0 1-.097-1.565l12.459-1.566a.785.785 0 0 1 .196 1.558l-12.459 1.566a.66.66 0 0 1-.099.007zM877.794 366.496a.785.785 0 0 1-.098-1.565l26.701-3.356a.786.786 0 0 1 .196 1.558l-26.701 3.356a.637.637 0 0 1-.098.007zM832.635 372.172a.784.784 0 0 1-.097-1.565l37.164-4.671a.785.785 0 0 1 .196 1.558l-37.164 4.671a.66.66 0 0 1-.099.007z"/><path style="fill:#d8e7ee" d="M808.683 398.498v12.715a4.04 4.04 0 0 0 4.538 4.009l54.246-6.739a4.04 4.04 0 0 0 3.541-3.933l.233-12.366a4.04 4.04 0 0 0-4.51-4.089l-54.48 6.389a4.042 4.042 0 0 0-3.568 4.014z"/><path style="fill:#fff" d="M851.023 395.814a.784.784 0 0 1-.097-1.565l14.349-1.803a.786.786 0 0 1 .196 1.558l-14.349 1.803a.66.66 0 0 1-.099.007zM814.179 400.445a.785.785 0 0 1-.098-1.565l27.428-3.447a.785.785 0 0 1 .196 1.558l-27.428 3.447a.637.637 0 0 1-.098.007zM835.661 402.849a.785.785 0 0 1-.097-1.565l29.406-3.696a.785.785 0 0 1 .196 1.558l-29.407 3.696a.532.532 0 0 1-.098.007zM814.179 405.549a.785.785 0 0 1-.098-1.565l11.536-1.45a.785.785 0 0 1 .196 1.558l-11.536 1.45a.637.637 0 0 1-.098.007zM814.179 410.262a.785.785 0 0 1-.098-1.565l13.598-1.709a.785.785 0 0 1 .196 1.558l-13.598 1.709a.637.637 0 0 1-.098.007z"/><path style="fill:#ffb002" d="M851.22 428.659v12.713a4.04 4.04 0 0 0 4.541 4.009l50.766-6.346a4.04 4.04 0 0 0 3.538-3.933l.03-1.573.047-2.464.157-8.33a4.04 4.04 0 0 0-4.511-4.089l-51 6a4.043 4.043 0 0 0-3.568 4.013z"/><path style="fill:#fff" d="M894.202 426.396a.785.785 0 0 1-.098-1.565l9.13-1.147a.785.785 0 1 1 .196 1.558l-9.13 1.147a.807.807 0 0 1-.098.007zM864.417 430.139a.785.785 0 0 1-.098-1.565l23.856-2.998a.785.785 0 0 1 .196 1.559l-23.856 2.998a.793.793 0 0 1-.098.006zM885.565 432.586a.784.784 0 0 1-.097-1.565l17.738-2.229a.785.785 0 0 1 .196 1.558l-17.738 2.229a.66.66 0 0 1-.099.007zM856.981 436.178a.785.785 0 0 1-.097-1.565l16.284-2.047a.786.786 0 0 1 .196 1.558l-16.284 2.047a.66.66 0 0 1-.099.007zM856.981 440.891a.784.784 0 0 1-.097-1.565l9.747-1.225a.786.786 0 0 1 .196 1.558l-9.747 1.225a.824.824 0 0 1-.099.007z"/><path style="fill:#c7294d" d="M913.897 261.02c-1.92-.343-3.798 1.181-4.195 3.404-.397 2.223.837 4.303 2.757 4.646 1.92.343 3.798-1.181 4.195-3.404.397-2.223-.837-4.304-2.757-4.646zm1.325 5.14-.922.922-1.191-1.177-1.233 1.37-.979-.979 1.229-1.362-1.192-1.177.942-.942 1.136 1.136 1.234-1.368.975.975-1.233 1.369 1.234 1.233z"/><path style="fill:#fdae04" d="M905.347 262.135c-1.92-.343-3.798 1.181-4.195 3.404-.397 2.223.838 4.303 2.758 4.646 1.92.343 3.798-1.181 4.195-3.404.397-2.223-.838-4.303-2.758-4.646zm1.326 4.397-4.089.743v-1.487l4.089-.743v1.487z"/><path style="fill:#145d76" d="m572.588 445.235 8.347-1.18a2.832 2.832 0 0 0 2.435-2.757l.703-35.927c0-1.511-1.132-2.54-2.356-2.42l-9.358.917.229 41.367z"/><path style="fill:#4c9cd8" d="m581.717 402.952-9.358.917.007 1.314c2.473-.405 8.178-1.323 9.061-1.323.378 0 .672.126.896.294.403.302.616.797.616 1.301v4.451h1.045l.089-4.534c0-1.512-1.132-2.541-2.356-2.42z"/><path style="fill:#fff" d="M578.027 333.578c0 .309-.344 25.974-.344 25.974l18.851 19.238-19.034-5.68-1.362 100.276L466.559 488.5l.378-139.808 111.09-15.114z"/><path style="fill:#d6e6ed" d="M474.537 450.597v12.716a4.04 4.04 0 0 0 4.546 4.008l62.367-7.882a4.04 4.04 0 0 0 3.533-3.932l.233-12.36a4.04 4.04 0 0 0-4.521-4.087l-62.601 7.526a4.04 4.04 0 0 0-3.557 4.011z"/><path style="fill:#fff" d="M498.283 450.379a.785.785 0 0 1-.097-1.565l41.92-5.269a.786.786 0 0 1 .196 1.558l-41.92 5.269a.678.678 0 0 1-.099.007zM479.725 452.711a.785.785 0 0 1-.097-1.565l10.188-1.28a.785.785 0 1 1 .196 1.558l-10.188 1.28a.55.55 0 0 1-.099.007zM513.714 453.545a.785.785 0 0 1-.097-1.565l26.22-3.295a.786.786 0 0 1 .196 1.558l-26.22 3.295a.669.669 0 0 1-.099.007zM479.725 457.816a.785.785 0 0 1-.097-1.565l19.295-2.425a.786.786 0 0 1 .196 1.558l-19.295 2.425a.66.66 0 0 1-.099.007zM504.737 459.385a.785.785 0 0 1-.097-1.565l22.641-2.846a.786.786 0 0 1 .196 1.558l-22.642 2.846a.637.637 0 0 1-.098.007zM479.725 462.529a.785.785 0 0 1-.097-1.564l13.629-1.713a.786.786 0 0 1 .196 1.558l-13.629 1.713a1.096 1.096 0 0 1-.099.006z"/><path style="fill:#ffb002" d="M485.817 412.008v12.72a4.04 4.04 0 0 0 4.546 4.008l74.742-9.43a4.04 4.04 0 0 0 3.534-3.932l.233-12.357a4.04 4.04 0 0 0-4.524-4.087l-74.975 9.067a4.04 4.04 0 0 0-3.556 4.011z"/><path style="fill:#fff" d="M533.203 408.932a.785.785 0 0 1-.097-1.565l30.252-3.802a.785.785 0 0 1 .196 1.558l-30.252 3.802a.66.66 0 0 1-.099.007zM491.594 414.162a.785.785 0 0 1-.097-1.565l28.117-3.534a.785.785 0 1 1 .195 1.558l-28.117 3.534a.637.637 0 0 1-.098.007zM515.296 416.288a.785.785 0 0 1-.097-1.564l48.159-6.053a.786.786 0 0 1 .196 1.558l-48.159 6.053a.822.822 0 0 1-.099.006zM491.594 419.267a.785.785 0 0 1-.097-1.564l12.459-1.566a.786.786 0 0 1 .196 1.558l-12.459 1.566a.822.822 0 0 1-.099.006zM536.753 418.303a.785.785 0 0 1-.097-1.565l26.701-3.356a.785.785 0 0 1 .196 1.558l-26.701 3.356a.66.66 0 0 1-.099.007zM491.594 423.979a.785.785 0 0 1-.097-1.564l37.164-4.671a.786.786 0 0 1 .196 1.558l-37.164 4.671a.822.822 0 0 1-.099.006z"/><path style="fill:#d6e6ed" d="M474.954 374.265v12.715a4.04 4.04 0 0 0 4.538 4.009l54.247-6.739a4.04 4.04 0 0 0 3.541-3.933l.233-12.366a4.04 4.04 0 0 0-4.51-4.089l-54.48 6.39a4.042 4.042 0 0 0-3.569 4.013z"/><path style="fill:#fff" d="M517.294 371.582a.785.785 0 0 1-.097-1.565l14.349-1.803a.786.786 0 0 1 .196 1.558l-14.349 1.803a.66.66 0 0 1-.099.007zM480.451 376.212a.785.785 0 0 1-.097-1.565l27.427-3.447a.786.786 0 0 1 .196 1.558l-27.428 3.447a.532.532 0 0 1-.098.007zM501.933 378.617a.785.785 0 0 1-.097-1.565l29.406-3.696a.785.785 0 0 1 .196 1.558l-29.406 3.696a.669.669 0 0 1-.099.007zM480.451 381.317a.785.785 0 0 1-.097-1.565l11.535-1.45a.785.785 0 0 1 .196 1.558l-11.535 1.45a.66.66 0 0 1-.099.007zM480.451 386.029a.785.785 0 0 1-.097-1.565l13.598-1.709a.785.785 0 0 1 .196 1.558l-13.598 1.709a.66.66 0 0 1-.099.007z"/><path style="fill:#c7294d" d="M570.467 339.566c-1.92-.343-3.798 1.181-4.195 3.404-.397 2.223.837 4.303 2.757 4.646 1.92.343 3.798-1.181 4.195-3.404.397-2.223-.837-4.304-2.757-4.646zm1.326 5.14-.922.922-1.191-1.177-1.233 1.37-.979-.979 1.229-1.362-1.192-1.177.942-.942 1.136 1.136 1.234-1.368.975.975-1.233 1.369 1.234 1.233z"/><path style="fill:#fdae04" d="M561.918 340.681c-1.92-.343-3.798 1.181-4.195 3.404-.397 2.223.837 4.303 2.757 4.646 1.92.343 3.798-1.181 4.195-3.404.397-2.223-.837-4.303-2.757-4.646zm1.325 4.397-4.089.743v-1.487l4.089-.743v1.487z"/><path style="fill:#d6d6d6" d="M466.559 489.127a.625.625 0 0 1-.627-.628l.378-139.808a.626.626 0 0 1 .542-.619l76.318-10.383a.627.627 0 1 1 .169 1.241l-75.777 10.31-.375 138.541 108.865-15.016a.628.628 0 0 1 .171 1.242l-109.579 15.114a.607.607 0 0 1-.085.006z"/><path style="fill:#e6e6e6" d="m570.47 451.092 5.98-.673.613-45.094-6.593.801v44.966z"/><path style="fill:#4c9cd8" d="m572.588 447.88 8.347-1.181a2.832 2.832 0 0 0 2.435-2.757l.645-38.572-11.656 1.143.229 41.367z"/><path style="fill:#1e7aa6" d="M572.736 448.069a.378.378 0 0 1-.044-.753c.064-.008 6.446-.759 8.568-1.033 1.794-.232 1.853-2.586 1.855-2.686l.584-37.156a.378.378 0 1 1 .756.012l-.584 37.156c-.014 1.073-.557 3.171-2.514 3.424-2.126.275-8.512 1.026-8.577 1.034-.014.002-.029.002-.044.002z"/><path style="fill:#145d76" d="M574.303 440.447c.011-2.209 1.572-3.992 3.486-3.982 1.914.009 3.457 1.808 3.446 4.017-.011 2.209-1.572 3.992-3.486 3.982-1.914-.01-3.457-1.808-3.446-4.017z"/><path style="fill:#4fff32" d="M574.945 440.475c.008 1.559 1.109 2.817 2.46 2.81 1.351-.007 2.44-1.276 2.432-2.835-.008-1.559-1.109-2.817-2.46-2.81-1.351.007-2.44 1.276-2.432 2.835z"/><path style="fill:#02c700" d="M576.734 441.909c1.009-.005 1.822-.953 1.816-2.116-.005-1.101-.742-2-1.676-2.09.162-.04.331-.062.503-.063 1.351-.007 2.453 1.251 2.46 2.81.008 1.559-1.081 2.828-2.432 2.835-1.351.007-2.453-1.251-2.46-2.81 0-.059.004-.116.007-.173.196.925.92 1.612 1.782 1.607z"/><path style="fill:#ca2276" d="m620.825 735.246-.775-.003c-2.01-.019-3.746-1.563-3.854-3.57a3.779 3.779 0 0 1 3.772-3.989h.04c11.521.105 19.073-2.179 23.075-7.024 6.494-7.863 3.452-22.841.767-36.056-3.121-15.367-1.481-23.731.677-28.169 1.243-2.556 4.813-2.731 6.275-.294a4.35 4.35 0 0 1 .263 3.981c-1.193 2.734-2.607 9.205.191 22.978 3.021 14.872 6.445 31.728-2.346 42.373-5.429 6.572-14.621 9.773-28.085 9.773z"/><path style="fill:#7e0e4f" d="M653.958 714.303a.377.377 0 0 1-.372-.442c1.63-9.366-.67-20.691-2.7-30.682-2.845-14.007-1.326-20.551-.167-23.206a3.982 3.982 0 0 0-.241-3.635 3.136 3.136 0 0 0-1.978-1.459 3.237 3.237 0 0 0-2.471.411.377.377 0 1 1-.404-.639 4.002 4.002 0 0 1 3.05-.508 3.888 3.888 0 0 1 2.452 1.806 4.742 4.742 0 0 1 .286 4.327c-1.123 2.573-2.589 8.949.215 22.751 2.043 10.059 4.358 21.458 2.704 30.964a.383.383 0 0 1-.374.312z"/><path style="fill:#7e0e4f" d="M649.927 667.103a.378.378 0 0 1-.654.363c-.111-.146-2.756-3.536-6.895-.865a.377.377 0 1 1-.409-.635c4.737-3.057 7.876 1.004 7.907 1.045.021.029.038.06.051.092zM651.351 681.991a.378.378 0 0 1-.499.557c-.153-.101-3.762-2.439-6.799 1.439a.377.377 0 1 1-.594-.467c3.476-4.438 7.771-1.629 7.814-1.6a.41.41 0 0 1 .078.071zM654.442 699.732a.379.379 0 0 1-.547.51c-.143-.114-3.53-2.764-6.899.829a.378.378 0 1 1-.551-.517c3.856-4.112 7.885-.932 7.925-.899a.35.35 0 0 1 .072.077zM653.251 718.1a.377.377 0 0 1-.742.092c-.048-.177-1.234-4.31-6.071-3.382a.378.378 0 1 1-.142-.742c5.536-1.063 6.929 3.877 6.942 3.927a.42.42 0 0 1 .013.105zM639.018 732.684a.378.378 0 0 1-.66-.352c.062-.172 1.468-4.236-3.023-6.257a.378.378 0 1 1 .311-.689c5.141 2.313 3.441 7.156 3.423 7.204a.37.37 0 0 1-.051.094z"/><path style="fill:#145d76" d="m612.263 753.568 8.347-1.18a2.832 2.832 0 0 0 2.435-2.757l.703-35.927c0-1.511-1.132-2.54-2.356-2.42l-9.357.917.228 41.367z"/><path style="fill:#4c9cd8" d="m621.392 711.284-9.357.917.007 1.314c2.473-.405 8.178-1.323 9.061-1.323.378 0 .672.126.896.294.403.302.616.797.616 1.301v4.451h1.045l.089-4.534c-.001-1.512-1.133-2.54-2.357-2.42z"/><path style="fill:#145d76" d="m612.263 753.568 8.347-1.18a2.832 2.832 0 0 0 2.435-2.757l.703-35.927c0-1.511-1.132-2.54-2.356-2.42l-9.357.917.228 41.367z"/><path style="fill:#4c9cd8" d="m621.392 711.284-9.357.917.007 1.314c2.473-.405 8.178-1.323 9.061-1.323.378 0 .672.126.896.294.403.302.616.797.616 1.301v4.451h1.045l.089-4.534c-.001-1.512-1.133-2.54-2.357-2.42z"/><path style="fill:#fff" d="M617.324 613.571c0 .35-.43 41.26-.43 41.26l15.988-16.171-16.12 28.724-1.327 125.291-126.96 19.292.378-179.105 128.471-19.291z"/><path style="fill:#e6e6e6" d="m616.272 713.715-8.458.985-.418 46.376 8.398-2.286.478-45.075z"/><path style="fill:#d6d6d6" d="M488.474 812.595a.624.624 0 0 1-.627-.628l.378-179.105a.627.627 0 0 1 .534-.618l24.904-3.74a.627.627 0 0 1 .186 1.24l-24.371 3.66-.375 177.835 125.711-19.102.53-49.965a.626.626 0 0 1 .626-.62h.007a.627.627 0 0 1 .62.633l-.536 50.498a.627.627 0 0 1-.533.613l-126.96 19.292a.586.586 0 0 1-.094.007z"/><path style="fill:#4c9cd8" d="m612.263 756.213 8.347-1.18a2.832 2.832 0 0 0 2.435-2.757l.645-38.572-11.656 1.143.229 41.366z"/><path style="fill:#1e7aa6" d="M612.411 756.402a.378.378 0 0 1-.044-.753c.064-.008 6.446-.759 8.568-1.033 1.794-.232 1.853-2.586 1.855-2.686l.584-37.156a.378.378 0 1 1 .756.012l-.583 37.156c-.014 1.073-.557 3.171-2.514 3.424-2.126.275-8.512 1.026-8.576 1.034l-.046.002z"/><ellipse transform="rotate(-89.71 617.467 748.791)" style="fill:#145d76" cx="617.46" cy="748.799" rx="3.999" ry="3.466"/><path style="fill:#4fff32" d="M614.636 748.81c.008 1.559 1.109 2.817 2.46 2.81 1.351-.007 2.44-1.276 2.432-2.835-.008-1.559-1.109-2.817-2.46-2.81-1.351.007-2.44 1.276-2.432 2.835z"/><path style="fill:#02c700" d="M616.425 750.244c1.009-.005 1.822-.953 1.816-2.116-.006-1.101-.742-2-1.676-2.09.162-.04.331-.062.503-.063 1.351-.007 2.453 1.252 2.46 2.81.008 1.559-1.081 2.828-2.432 2.835-1.351.007-2.453-1.252-2.46-2.81 0-.059.004-.116.007-.173.196.925.92 1.611 1.782 1.607z"/><path style="fill:#ffb002" d="M522.583 744.575v12.72a4.04 4.04 0 0 0 4.546 4.008l74.742-9.43a4.04 4.04 0 0 0 3.534-3.932l.233-12.356a4.04 4.04 0 0 0-4.524-4.087l-74.975 9.067a4.039 4.039 0 0 0-3.556 4.01z"/><path style="fill:#fff" d="M569.969 741.499a.786.786 0 0 1-.097-1.565l30.252-3.802a.785.785 0 1 1 .196 1.558l-30.252 3.802a.66.66 0 0 1-.099.007zM528.361 746.729a.786.786 0 0 1-.097-1.565l28.117-3.534a.784.784 0 1 1 .196 1.558l-28.117 3.534a.678.678 0 0 1-.099.007zM552.062 748.855a.786.786 0 0 1-.097-1.565l48.159-6.053a.786.786 0 0 1 .196 1.558l-48.158 6.053a.682.682 0 0 1-.1.007zM528.361 751.834a.786.786 0 0 1-.097-1.565l12.459-1.566a.785.785 0 0 1 .196 1.558l-12.459 1.566a.678.678 0 0 1-.099.007zM573.52 750.87a.785.785 0 0 1-.097-1.564l26.701-3.356a.785.785 0 1 1 .196 1.558l-26.701 3.356a.847.847 0 0 1-.099.006zM528.361 756.546a.786.786 0 0 1-.097-1.565l37.164-4.671a.785.785 0 0 1 .196 1.558l-37.164 4.671a.678.678 0 0 1-.099.007z"/><path style="fill:#d6e6ed" d="m497.501 646.754.111 12.719a4.04 4.04 0 0 0 4.58 3.969l74.657-10.08a4.04 4.04 0 0 0 3.499-3.963l.126-12.358a4.04 4.04 0 0 0-4.56-4.047l-74.893 9.719a4.038 4.038 0 0 0-3.52 4.041z"/><path style="fill:#fff" d="M544.852 643.266a.785.785 0 0 1-.103-1.563l30.217-4.065a.785.785 0 1 1 .209 1.557l-30.217 4.065a.955.955 0 0 1-.106.006zM503.29 648.857a.785.785 0 0 1-.103-1.563l28.085-3.779a.785.785 0 1 1 .209 1.557l-28.085 3.779a.955.955 0 0 1-.106.006zM527.009 650.777a.785.785 0 0 1-.103-1.564l48.104-6.471a.785.785 0 1 1 .209 1.557l-48.104 6.471a.755.755 0 0 1-.106.007zM503.335 653.962a.785.785 0 0 1-.103-1.564l12.445-1.674a.785.785 0 1 1 .21 1.557l-12.445 1.674a.8.8 0 0 1-.107.007zM548.483 652.606a.785.785 0 0 1-.103-1.564l26.671-3.588a.785.785 0 1 1 .209 1.557l-26.671 3.588a.943.943 0 0 1-.106.007zM503.376 658.674a.785.785 0 0 1-.103-1.563l37.122-4.994a.785.785 0 1 1 .209 1.557l-37.122 4.994a.969.969 0 0 1-.106.006z"/><path style="fill:#d6e6ed" d="m498.748 782.671.089 12.715a4.04 4.04 0 0 0 4.566 3.977l54.198-7.116a4.04 4.04 0 0 0 3.514-3.957l.147-12.368a4.04 4.04 0 0 0-4.538-4.057l-54.434 6.768a4.041 4.041 0 0 0-3.542 4.038z"/><path style="fill:#fff" d="M541.063 779.693a.784.784 0 0 1-.102-1.564l14.336-1.903a.785.785 0 1 1 .207 1.557l-14.336 1.903a.632.632 0 0 1-.105.007zM504.252 784.58a.784.784 0 0 1-.102-1.564l27.403-3.638a.785.785 0 1 1 .207 1.557l-27.403 3.638a.74.74 0 0 1-.105.007zM525.75 786.836a.786.786 0 0 1-.103-1.564l29.38-3.901a.784.784 0 1 1 .207 1.557l-29.38 3.901a.717.717 0 0 1-.104.007zM504.288 789.685a.784.784 0 0 1-.102-1.564l11.525-1.53a.785.785 0 1 1 .207 1.557l-11.525 1.53a.76.76 0 0 1-.105.007zM504.321 794.397a.784.784 0 0 1-.102-1.564l13.586-1.803a.785.785 0 1 1 .207 1.557l-13.586 1.803a.76.76 0 0 1-.105.007z"/><path style="fill:#ffb002" d="M544.727 675.08v12.716a4.04 4.04 0 0 0 4.538 4.009l54.246-6.739a4.04 4.04 0 0 0 3.541-3.933l.233-12.366a4.04 4.04 0 0 0-4.51-4.089l-54.48 6.39a4.039 4.039 0 0 0-3.568 4.012z"/><path style="fill:#fff" d="M587.067 672.396a.786.786 0 0 1-.097-1.565l14.349-1.803a.786.786 0 0 1 .196 1.558l-14.349 1.803a.678.678 0 0 1-.099.007zM550.223 677.027a.786.786 0 0 1-.097-1.565l27.428-3.447a.786.786 0 0 1 .196 1.558l-27.427 3.447a.682.682 0 0 1-.1.007zM571.705 679.432a.786.786 0 0 1-.097-1.565l29.406-3.696a.784.784 0 1 1 .196 1.558l-29.406 3.696a.66.66 0 0 1-.099.007zM550.223 682.132a.785.785 0 0 1-.097-1.565l11.536-1.45a.786.786 0 0 1 .196 1.558l-11.535 1.45a.682.682 0 0 1-.1.007zM550.223 686.844a.786.786 0 0 1-.097-1.565l13.598-1.709a.785.785 0 1 1 .195 1.558l-13.598 1.709a.637.637 0 0 1-.098.007z"/><path style="fill:#d6e6ed" d="M500.44 714.851v12.713a4.04 4.04 0 0 0 4.541 4.009l50.766-6.346a4.04 4.04 0 0 0 3.538-3.932l.233-12.367a4.04 4.04 0 0 0-4.511-4.089l-50.999 6a4.039 4.039 0 0 0-3.568 4.012z"/><path style="fill:#fff" d="M543.422 712.587a.786.786 0 0 1-.097-1.565l9.13-1.148a.786.786 0 0 1 .196 1.558l-9.13 1.148a.678.678 0 0 1-.099.007zM513.637 716.331a.786.786 0 0 1-.097-1.565l23.857-2.998a.785.785 0 1 1 .195 1.558l-23.856 2.999a.822.822 0 0 1-.099.006zM534.785 718.777a.785.785 0 0 1-.097-1.565l17.738-2.229a.786.786 0 0 1 .196 1.558l-17.739 2.229a.637.637 0 0 1-.098.007zM506.201 722.37a.785.785 0 0 1-.097-1.564l16.284-2.047a.786.786 0 0 1 .196 1.559l-16.284 2.046a.822.822 0 0 1-.099.006zM506.201 727.082a.786.786 0 0 1-.097-1.564l9.747-1.225a.785.785 0 0 1 .196 1.558l-9.747 1.225a.822.822 0 0 1-.099.006z"/><path style="fill:#c7294d" d="M609.322 619.49c-1.92-.343-3.798 1.181-4.195 3.404-.397 2.223.837 4.303 2.757 4.646 1.92.343 3.798-1.181 4.195-3.404.398-2.223-.837-4.303-2.757-4.646zm1.326 5.14-.922.922-1.191-1.177-1.233 1.37-.979-.979 1.229-1.362-1.192-1.177.942-.942 1.136 1.136 1.234-1.368.975.975-1.233 1.37 1.234 1.232z"/><path style="fill:#fdae04" d="M600.773 620.605c-1.92-.343-3.798 1.181-4.195 3.404-.397 2.223.837 4.303 2.757 4.646 1.92.343 3.798-1.181 4.195-3.404.397-2.223-.837-4.303-2.757-4.646zm1.325 4.397-4.089.743v-1.487l4.089-.743v1.487z"/><path style="fill:#1e7aa6" d="M612.411 756.402a.378.378 0 0 1-.044-.753c.064-.008 6.446-.759 8.568-1.033 1.794-.232 1.853-2.586 1.855-2.686l.584-37.156a.378.378 0 1 1 .756.012l-.583 37.156c-.014 1.073-.557 3.171-2.514 3.424-2.126.275-8.512 1.026-8.576 1.034l-.046.002z"/><path style="fill:#ca2276" d="M683.181 587.494a9.814 9.814 0 0 1 .129-1.908c.043-.273.096-.54.159-.804a.704.704 0 0 1 .084-.243l.099-.244c.208-.384.312-.576.52-.965.173-.328.488-.64.946-.937.059-.042.139-.095.239-.159l.284-.161.539-.277c.15-.087.32-.154.511-.2l.257-.054.257-.054c.141-.025.278-.028.41-.01l.364.007c.142.007.263.02.365.039l.183.011.091.014.076.03c.143.05.211.161.22.316.008.146.015.423.005.82l-.036.386-.02.402-.042.161a.355.355 0 0 1-.296.29c-.435.072-.653.108-1.088.178l-.378.048c-.604.095-1.05.434-1.338 1.013a2.211 2.211 0 0 0-.246 1.039c0 .556.13 1.127.346 1.675l.353.795c.231.375.455.619.668.721.172.083.356.138.548.169l.182.04.182.025c.172.019.293.041.365.065.152.049.374.067.652.062.209-.003.316.112.34.304.031.247.068.573.097.904.017.188.039.377.044.548l.029.564c.005.193-.079.3-.25.32l-.06.012-.075.011-.166.02-.151.022-.166.02-.483.013-.483.027c-.221.015-.502-.033-.833-.127a4.765 4.765 0 0 1-1.359-.637c-.604-.411-1.064-.904-1.365-1.439a4.192 4.192 0 0 1-.487-1.279l-.154-.645a3.762 3.762 0 0 1-.043-.472l-.021-.228c0-.092-.001-.137-.004-.228zM695.462 582.118c.005-.202.089-.31.251-.325l1.275-.03.365.008.228-.005c.152-.004.249.068.293.214l.017.085.001.051a.53.53 0 0 1 .017.085l.076.629.061.647.06.613.045.613.014.579-.002.58-.021.409-.006.409c.031 2.18.05 3.39.055 3.628l.034.784.049.784.007.307c-.026.17-.125.253-.268.231a1.527 1.527 0 0 0-.411-.011l-.212.045-.212.045-.423.122c-.151.04-.409.054-.774.04-.132-.005-.208-.098-.249-.245a2.396 2.396 0 0 1-.086-.456l-.063-.758-.062-.724.008-.302.023-.302.036-.403.021-.403c.018-.1.015-.218-.008-.353l-.023-.336c-.004-.157-.076-.236-.218-.238l-.106.016-.106.015c-.211.042-.48.043-.804.005-.041-.023-.087-.023-.137-.002l-1.032-.018a.306.306 0 0 0-.106.014c-.083.035-.221.096-.237.26-.005.052-.003.195-.006.396-.002.127-.018.297-.034.495l-.003.511.002.099c-.005.198 0 .633.015 1.305.002.066.002.334-.012.791-.005.163-.085.243-.237.236a27.746 27.746 0 0 0-.288-.014 1.423 1.423 0 0 1-.289-.047c-.487-.084-.73-.126-1.217-.212l-.137-.04a.4.4 0 0 1-.311-.357 46.417 46.417 0 0 0-.009-.373 43.01 43.01 0 0 0-.024-.358 46.748 46.748 0 0 0-.046-1.281 12.41 12.41 0 0 1 .038-1.587l.01-.843c.029-.497.04-1.076.035-1.736l.02-.422c.008-.076.011-.157.009-.244l-.043-1.803-.017-.097a.632.632 0 0 1-.02-.195c.038-.292.046-.667.129-.945.06-.199.19-.314.402-.32l.273.01.273.009.759.013c.03-.001.191-.012.411.022.113.018.2.122.234.276l.148 1.139.016.05.002.066.033.761.018.761-.023.943c.005.198.088.298.25.298.435.001.719.008.85.019l.456.05.457.067c.183.023.299.034.35.034.121 0 .19-.078.207-.235l-.005-.219c-.007-1.165-.017-1.81-.014-1.916a4.842 4.842 0 0 0-.015-.656l-.017-.758zM707.531 592.468a.267.267 0 0 1-.191.282.527.527 0 0 1-.197.037l-.213.019-.456.038-.259-.016-.259.001a4.249 4.249 0 0 0-.487.019c-.233.036-.368-.081-.405-.348l-.231-1.289-.165-1.097c-.035-.186-.074-.302-.115-.348-.052-.058-.155-.109-.308-.155-.408-.09-.744-.136-1.008-.135a8.144 8.144 0 0 1-.64-.016c-.159-.014-.252.07-.268.243l-.037.346-.023.311-.022.363-.011.156-.011.156-.033.519-.048.519a2.04 2.04 0 0 1-.065.466c-.049.179-.156.281-.328.29-.51.049-.766.072-1.276.118a3.034 3.034 0 0 1-.487.025l-.243.012-.258.029c-.071-.002-.112-.008-.122-.02-.153-.027-.216-.125-.19-.295l.053-.323.038-.324.29-1.896.027-.136.027-.154c.016-.148.034-.274.052-.377l.106-.651.278-1.716c.009-.057.021-.166.038-.326l.023-.31c.101-.86.228-1.675.382-2.446l.309-1.659.027-.139.042-.156c.054-.266.213-.399.445-.425.701-.079 1.242-.153 1.546-.125a.748.748 0 0 0 .198.012l.136-.003.152.013c.182-.005.344.003.486.022l.914.116 1.066.113c.152.008.259.046.322.114l.016.052.017.07c.022.07.039.145.052.226l.151 1.151.041.419c.026.21.045.355.057.436l.082.839c.038.291.076.565.113.82l.124.698.125.698.145.891c.047.256.085.541.114.856l.059.524.059.525.077.612.062.63c.006.234.015.379.026.438l.079.661zm-3.222-5.711a.25.25 0 0 0-.016-.017l-.076-.626-.092-.625-.086-.399-.086-.399c-.034-.15-.112-.23-.234-.239a13.166 13.166 0 0 0-.198-.014l-.213-.013c-.112.002-.191.073-.238.213a1.04 1.04 0 0 0-.04.226l-.04.227c-.045.22-.085.47-.118.748l-.088.747a2.041 2.041 0 0 0-.082.365c-.026.196.047.283.219.258.051 0 .081-.007.091-.019l1.078-.08c.152-.025.225-.13.22-.316l-.001-.037zM713.166 587.878c.02.714.038 1.176.055 1.386l.018.632c.006.199.019.419.049.648.056.426.091.87.083 1.315.001.047-.004.247-.014.598-.005.187-.093.296-.265.325l-.425.067-.425.083a1.901 1.901 0 0 1-.686.002l-.352-.043-.352-.044c-.163-.007-.251-.12-.253-.328a34.78 34.78 0 0 1 0-1.107c.003-.077.008-.258.001-.527l-.023-1.95-.005-.193.026-.176c.008-.071.012-.135.01-.193l-.004-.14-.03-.544-.045-.543a3.291 3.291 0 0 1 .004-.422l-.02-.738c-.002-.082-.034-.495-.063-1.21-.003-.08-.009-.129-.019-.14-.033-.116-.096-.173-.187-.171l-.122.003-.121.021a1.225 1.225 0 0 0-.242.041 6.432 6.432 0 0 1-1.089.203l-.045.001-.06.019c-.142.003-.23-.065-.264-.204a1.439 1.439 0 0 1-.122-.576c-.003-.117-.001-.577-.065-1.296a4.109 4.109 0 0 0-.107-.594v-.018a.082.082 0 0 1-.017-.052c-.058-.267.045-.416.307-.446l.44-.03.44-.029.395-.011.38.007c.213-.006.47-.025.773-.056.151-.016.311-.029.469-.048.208-.025.428-.072.635-.106.107-.018.364-.028.758-.039l.303-.026.319-.009.821.03c.152.007.309-.003.455-.013.184-.012.297.103.313.324l.042.945.031 1.086-.011.141c-.015.199-.126.289-.249.323-.098.027-.241.078-.393.083l-.85.061-.137.004a.327.327 0 0 0-.152.005c-.111.027-.164.105-.161.233l.008.281c.046.549.107 1.098.183 1.646.01.011.017.064.019.157l.038 1.352zM715.909 582.299l.017-.964c0-.011.004-.029.014-.053l-.002-.053.014-.053c.024-.234.131-.377.321-.429l.422-.117.407-.099.453-.083.453-.082.091-.003.897.028.122.014a.23.23 0 0 1 .107.031 5.638 5.638 0 0 1 1.71.8c.114.077.254.194.421.349l.188.201.218.183.143.219.357.745c.12.294.155.63.122.994a3.012 3.012 0 0 1-.605 1.561 4.454 4.454 0 0 1-.236.252l-.251.237c-.109.098-.162.169-.161.215a.654.654 0 0 0 .187.147c.473.219.816.656 1.029 1.31l.116.321c.11.281.127.599.09.925-.061.533-.171 1.038-.38 1.455l-.101.179a2.53 2.53 0 0 1-.102.162l-.528.657-.089.075-.089.075-.105.059-.105.059-.104.076a.395.395 0 0 0-.089.075 1.575 1.575 0 0 1-.478.308l-.271.104-.256.103-.799.275c-.06.027-.11.047-.151.061l-.167.027-.608.052c-.263.038-.471.066-.622.086l-.395.056-.394.072a.744.744 0 0 1-.228.011l-.228.011c-.152.007-.231-.083-.237-.269l-.007-.228.008-.228c.027-.13.038-.265.034-.405l-.027-.402-.092-1.065-.037-1.277a1.494 1.494 0 0 1-.021-.21l-.004-.14c-.02-.326-.011-.917.024-1.77.015-.164.021-.322.017-.474l.009-.211-.007-.227.012-1.156c.008-.397.011-.637.009-.718-.022-1.087-.02-1.715-.024-1.855l-.012.001zm2.765.975c-.27-.041-.382.089-.322.412l.053.259.004.139.019.139.077.537.092.536c.016.185.11.258.28.215.16-.04.316-.1.466-.175.45-.204.686-.6.679-1.157-.004-.341-.152-.564-.4-.662a4.52 4.52 0 0 0-.948-.243zm.02 5.696.055.799c.006.197.099.283.266.248.258-.054.522-.173.781-.337.099-.063.183-.138.252-.223.283-.351.352-.722.195-1.087-.154-.358-.398-.576-.704-.642-.153-.028-.391.001-.713.086-.101.016-.142.107-.145.251-.002.1-.005.337.006.697l.007.208zM723.372 587.232c.014-.195.02-.475.019-.841l.007-.258-.007-.223a2.682 2.682 0 0 1 .004-.343c.06-.666.173-1.307.35-1.901a7.38 7.38 0 0 1 .534-1.355c.306-.569.717-.965 1.207-1.199a3.699 3.699 0 0 1 1.007-.32l.166-.022.197-.023.365.006.288-.009c.061.009.122.013.183.011l.136-.004.213.01.229.043c.408.098.8.228 1.166.393.492.222.938.539 1.336.939.167.157.375.458.605.891.239.451.465 1.069.649 1.81.134.538.188 1.045.168 1.489a7.31 7.31 0 0 0 .009.749c.01.179-.003.51-.076.953-.076.457-.283.957-.59 1.479l-.072.138-.043.07-.058.088-.32.427-.102.125-.117.144a6.32 6.32 0 0 1-.279.293l-.28.26-.265.26c-.492.449-.928.717-1.31.801l-.979.249c-.786.122-1.435-.02-1.944-.43l-.249-.183-.25-.201a3.406 3.406 0 0 1-.265-.217l-.125-.092-.094-.095c-.324-.293-.642-.77-.927-1.42a5.88 5.88 0 0 1-.452-1.806.863.863 0 0 1-.01-.326l-.011-.36h-.013zm6.311-1.205-.021-.165a1.752 1.752 0 0 0-.041-.329l-.142-.639c-.218-.795-.694-1.292-1.429-1.491a1.313 1.313 0 0 0-.289-.003c-.122.028-.313.031-.484.073l-.18.059-.18.076a2.1 2.1 0 0 0-.849.988c-.269.641-.427 1.235-.462 1.704-.017.233-.007.39-.001.442.032.266.094.605.196.905.189.553.501 1.026.983 1.285.426.229.795.297 1.085.219.36-.097.616-.218.763-.364a3.15 3.15 0 0 0 .884-1.32c.12-.342.178-.766.172-1.275a4.686 4.686 0 0 0-.005-.165zM737.828 586.321c.018.629.035 1.036.051 1.22l.016.557c.005.176.018.369.047.569.054.371.087.76.078 1.154.001.041-.005.219-.015.53-.005.165-.093.272-.262.316l-.419.105-.419.12c-.209.06-.435.086-.677.075l-.348-.001-.347-.003c-.161.01-.247-.083-.25-.271a30.109 30.109 0 0 1-.001-1.003c.003-.07.008-.234.001-.478l-.024-1.764-.005-.174.025-.161c.008-.064.012-.123.01-.176l-.004-.127-.03-.49-.045-.489c-.006-.2-.005-.328.004-.382l-.02-.666c-.002-.074-.035-.447-.064-1.092-.003-.073-.009-.116-.019-.126-.033-.104-.096-.153-.186-.148l-.121.007-.121.023c-.06.003-.141.019-.241.046a7.065 7.065 0 0 1-1.085.224l-.045.003-.061.02c-.141.008-.229-.051-.263-.179a1.23 1.23 0 0 1-.123-.528c-.003-.107-.003-.534-.068-1.195a3.494 3.494 0 0 0-.108-.546v-.016c-.011-.01-.016-.026-.017-.048-.058-.246.043-.384.306-.415l.439-.032.439-.031.394-.014.38.003c.213-.007.47-.027.773-.058.151-.016.31-.029.469-.048.209-.025.428-.068.635-.1.108-.017.363-.029.757-.042l.303-.026.319-.011.82.018c.152.005.308-.006.455-.016.185-.013.296.086.311.278l.038.818.026.94-.012.122c-.015.173-.123.254-.249.289-.1.027-.24.076-.392.086l-.845.083-.136.008a.397.397 0 0 0-.151.009c-.11.027-.164.098-.16.212l.007.248c.044.484.104.965.178 1.446.01.01.017.055.019.138.012.475.019.713.033 1.189z"/><path style="fill:#54315d" d="M700.703 608.5c.295.023.442.035.737.056l.465.011.484.01c.065.004.308.009.717-.001.306-.008.488.151.535.49.015.074.026.25.032.528l.042 1.692.028.353.009.351c.006.235-.1.382-.319.441-.455.102-.683.151-1.138.246l-.116.013-.078-.006-.097.014a81.562 81.562 0 0 1-.972-.15l-.175-.016-.193.003a62.38 62.38 0 0 1-.756-.076 7.292 7.292 0 0 1-.757-.126c-.143-.03-.271-.048-.369-.064-.15-.024-.304-.05-.445-.053a55.367 55.367 0 0 1-.812-.06c-.517-.096-.787-.149-.813-.152a73.954 73.954 0 0 1-.464-.066.886.886 0 0 1-.328-.027c-.145-.035-.254-.169-.277-.338a4.938 4.938 0 0 1-.05-.515c-.005-.212-.013-1.094-.023-2.648a.979.979 0 0 1 .014-.21l.034-.186c.023-.11.104-.205.243-.287.661-.35.992-.53 1.655-.899.418-.257.745-.591.98-1.001l.297-.492c.123-.219.209-.385.258-.496.219-.514.212-1.107-.023-1.772a.372.372 0 0 0-.101-.179c-.357-.414-.703-.632-1.038-.658l-.096-.007-.078-.027-.174-.014a5.366 5.366 0 0 0-1.52.085l-.268.039c-.205.023-.342-.089-.412-.335l-.021-.087-.022-.129-.022-.129-.022-.129-.07-.514-.089-.537a4.736 4.736 0 0 1-.069-.471l-.005-.212-.025-.235c-.014-.029-.018-.126-.026-.277-.011-.221.061-.389.239-.489l.152-.073.077-.016.095-.035c.789-.239 1.458-.388 1.859-.324.131.021.322.048.54.031l.54.008c.502.027.948.127 1.338.304.599.302 1.045.654 1.338 1.058.44.643.765 1.268.973 1.874a3 3 0 0 1 .11.551l.046.286.046.309c.101.457.047 1.133-.163 2.026-.107.374-.296.837-.566 1.387l-.092.19-.111.211c-.22.494-.575 1.007-1.066 1.531l-.038.04-.057.061-.056.082-.056.082a.605.605 0 0 0 .254.108l.331.047zM710.19 612.228a2.605 2.605 0 0 1-.017-.644l.049-.334.029-.356c.042-.356.07-.77.064-1.224-.003-.19-.092-.295-.261-.309a96.414 96.414 0 0 1-.759-.04c-.49-.026-.736-.04-1.226-.072a8.878 8.878 0 0 0-.778-.033 82.08 82.08 0 0 1-1.207-.117l-.252.014-.252.014-.214-.008-.175-.029-.214-.03-.195-.03c-.221-.053-.322-.204-.302-.453-.001-.029.004-.337.016-.923l.021-.704.002-.682c.011-.073.013-.234.007-.484l-.012-.463.04-1.496.036-.902c-.006-.734.016-1.362.05-1.871.021-.305.049-.624.092-.946l.029-.396c.019-.249.132-.395.337-.436.37-.048.555-.072.925-.122a7.426 7.426 0 0 1 1.236-.084h.039l.077-.022.135-.022c.27-.03.395.116.359.421-.037.321-.054.721-.067 1.153-.005.159-.023.377-.041.643l-.003.643.003.111.022.089a.269.269 0 0 1 .005.2l-.002.665c-.007.237-.02.458-.041.665l-.038.776-.057.798.003.133c.031.208.135.302.28.312.207.015.447.032.679.002l.29-.022.29-.045c.103-.015.213-.016.33-.002l.272.02a.355.355 0 0 0 .175-.002l.175-.002c.22-.003.314-.116.282-.338l-.016-.6-.035-.577-.027-.289-.008-.289a1.376 1.376 0 0 1-.027-.266l-.005-.178-.025-.2-.028-.311-.047-.31-.007-.266c.006-.237.119-.38.337-.429l.443-.098.444-.077a3.64 3.64 0 0 1 .89-.047l.506.072c.208.052.315.174.32.367l.05.421c.031.177.028.331.013.445-.03.225-.026.439-.022.602l.028.288.009.311c.017.148.033.481.047.999l.003.089c.006.222.12.344.34.365l.31-.013c.078-.003.185.011.312.03.175.026.302.141.359.361l.062.797c.056.591.034 1.422-.065 2.495-.031.254-.157.401-.376.442l-.31.037-.33.015c-.246-.004-.366.119-.359.371l.017.6c.033.251.027.469.017.622-.037.621-.028 1.247-.05 1.693-.015.301-.162.467-.474.462-.026.001-.046-.006-.059-.02l-.058.002a.832.832 0 0 0-.312-.013l-.174.027-.155.026c-.452.101-.918.185-1.376.225-.242.021-.373-.122-.381-.419a67.303 67.303 0 0 0-.017-.778zM716.715 613.177c-.13-.02-.286-.03-.468-.032l-.487-.01-.098-.038c-.209-.045-.291-.181-.245-.406l.058-.693c.041-.373.116-.911.225-1.615l.152-.81.132-.808.182-1.078.183-1.056.099-.584.101-.539c.09-.465.151-.795.184-.989l.266-1.482c.125-.585.226-1.08.305-1.484.035-.135.09-.434.167-.898l.065-.425.083-.448.118-.584c.069-.27.128-.461.157-.564.052-.183.159-.298.339-.31l.462-.076.462-.055c.372-.042.674-.087.904-.134.051-.004.128-.003.232.004l.174-.014.193.006c.155.002.208.103.202.269-.008.19-.015.368-.062.489a6.231 6.231 0 0 0-.104 1.02l-.042.51-.023.508a31.52 31.52 0 0 1-.117 1.86c-.059.635-.2 1.48-.426 2.531l-.833 3.835a3.508 3.508 0 0 0-.067.36l-.033.202-.032.224-.065.405-.047.381a53.317 53.317 0 0 0-.225 1.571l-.051.248a.602.602 0 0 1-.357.411c-.135.057-.327.12-.56.141-.442.04-.663.058-1.106.093a.625.625 0 0 1 .003.064zM721.836 598.544c-.009-.306.121-.471.39-.496.223-.03.335-.044.558-.075l.539-.052.479-.091c.089-.023.179-.04.269-.049l.211-.022c.089-.024.333-.042.731-.057l.366-.019c.154-.003.279-.015.365-.041.062-.019.192-.029.385-.023l.193-.001.193-.001.289.008.288-.014.269-.012.289.006.174.021.172-.022c.154.008.268.021.328.021.224.001.395.118.455.406l.069.946.029.293.029.293-.014.172-.033.174c-.344 1.255-.582 2.26-.712 3.007l-.136.556-.117.554-.082.441-.063.438c-.032.205-.07.419-.114.64l-.049.265-.051.202c-.136.567-.233.941-.292 1.123a9.621 9.621 0 0 1-.278.952l-.157.523a18.45 18.45 0 0 0-.581 1.764l-.105.343-.123.368c-.082.26-.27.431-.563.511a1.47 1.47 0 0 1-.326.078c-.576.124-.864.184-1.441.299-.384.088-.596.134-.635.139-.244.036-.364-.086-.36-.364a4.31 4.31 0 0 1 .016-.112l-.003-.109.052-.205.764-2.82.21-.706.23-.686c.082-.259.164-.525.245-.797.059-.196.123-.409.193-.636l.153-.652.067-.313.086-.338.138-.518.119-.515c.126-.494.217-.826.278-.99.045-.12.1-.295.157-.519l.119-.513c.058-.209-.016-.314-.222-.318-.569.072-.853.106-1.423.172-.484.091-.726.135-1.21.222-.026.003-.18.005-.464.004-.077.008-.176-.061-.218-.174-.044-.117-.045-.222-.046-.237-.034-.976-.049-1.466-.079-2.444z"/><path style="fill:#fbae2b" d="M943.311 284.525a261.623 261.623 0 0 0-9.585 1.721c-.913.182-1.52.972-1.356 1.764.163.789 1.026 1.284 1.926 1.104a257.581 257.581 0 0 1 9.479-1.701c.906-.148 1.543-.91 1.421-1.706-.122-.8-.967-1.332-1.885-1.182zM920.167 289.238a262.245 262.245 0 0 0-9.447 2.362c-.898.244-1.451 1.072-1.234 1.852.216.776 1.11 1.212 1.996.972a258.06 258.06 0 0 1 9.343-2.336c.894-.209 1.478-1.012 1.303-1.798-.177-.79-1.055-1.263-1.961-1.052zM966.772 281.851a235.22 235.22 0 0 0-9.707.837c-.926.092-1.601.834-1.51 1.636.092.803.905 1.363 1.819 1.272 3.191-.347 6.389-.613 9.59-.827.916-.058 1.621-.76 1.574-1.566-.046-.806-.837-1.412-1.766-1.352zM990.405 281.564c-3.25-.141-6.502-.223-9.753-.201-.932.003-1.68.657-1.669 1.468.01.803.762 1.459 1.679 1.456 3.206-.022 6.41.059 9.61.198.915.047 1.693-.569 1.739-1.375.045-.806-.674-1.498-1.606-1.546zM1013.925 284.258l-2.405-.445-2.413-.391c-1.607-.275-3.225-.464-4.838-.691-.927-.114-1.754.458-1.845 1.258-.091.804.573 1.532 1.481 1.643 1.583.224 3.173.408 4.749.678l2.367.383 2.357.436c.9.159 1.755-.326 1.917-1.116.161-.79-.449-1.592-1.37-1.755zM1036.738 290.767c-3.05-1.178-6.131-2.283-9.266-3.202-.897-.271-1.804.14-2.025.916-.22.777.308 1.621 1.181 1.884 3.062.898 6.064 1.975 9.035 3.122.842.346 1.776.021 2.086-.724.311-.745-.142-1.639-1.011-1.996zM1057.693 301.999c-1.321-.975-2.716-1.837-4.087-2.737-.683-.454-1.403-.848-2.102-1.275-.709-.41-1.398-.858-2.125-1.236-.827-.449-1.805-.236-2.186.476s-.042 1.642.756 2.075c.706.366 1.372.801 2.06 1.198.678.414 1.377.795 2.038 1.235 1.327.873 2.681 1.707 3.958 2.651.739.525 1.728.424 2.208-.225.481-.647.248-1.616-.52-2.162zM1075.134 318.196c-2.053-2.562-4.327-4.938-6.645-7.26-.681-.652-1.695-.684-2.242-.095-.552.594-.452 1.565.203 2.191 2.24 2.246 4.44 4.541 6.425 7.02.575.7 1.557.864 2.193.366.633-.498.664-1.493.066-2.222zM1081.832 333.233l1.154 2.086a287.573 287.573 0 0 1 2.117 4.276c.37.829 1.27 1.237 2.008.911.739-.326 1.027-1.286.643-2.146-.71-1.476-1.444-2.94-2.18-4.403l-1.189-2.151c-.405-.712-.772-1.446-1.216-2.136-.492-.803-1.448-1.108-2.134-.682-.686.426-.857 1.399-.383 2.172.432.669.787 1.382 1.18 2.073zM1092.241 361.548c.188.89.946 1.502 1.746 1.355.788-.145 1.315-1.015 1.121-1.934a112.979 112.979 0 0 0-2.378-9.525c-.274-.9-1.141-1.422-1.907-1.174-.772.249-1.159 1.148-.894 2.017.9 3.051 1.679 6.139 2.312 9.261zM1094.141 375.04c.08.777.114 1.559.173 2.339.049.78.118 1.559.143 2.341.063 1.466.141 2.931.157 4.401.019.914.689 1.649 1.497 1.641.807-.008 1.447-.772 1.427-1.706-.016-1.495-.096-2.99-.16-4.485-.026-.797-.096-1.593-.146-2.39-.06-.796-.095-1.594-.177-2.389-.088-.932-.811-1.623-1.614-1.543-.803.081-1.385.883-1.3 1.791zM1095.927 396.211c-.809-.034-1.483.68-1.541 1.596a247.21 247.21 0 0 1-.698 9.601c-.075.915.492 1.721 1.298 1.8.801.079 1.538-.606 1.615-1.533.294-3.232.539-6.47.707-9.716.057-.929-.577-1.713-1.381-1.748zM1093.804 419.593c-.799-.102-1.547.555-1.67 1.467a484.12 484.12 0 0 1-1.368 9.559c-.135.912.393 1.751 1.192 1.875.797.124 1.564-.517 1.7-1.434.484-3.2.955-6.402 1.376-9.615.123-.92-.427-1.749-1.23-1.852zM1090.285 442.811c-.797-.133-1.564.497-1.719 1.407l-1.642 9.537c-.159.91.358 1.761 1.153 1.9s1.569-.487 1.728-1.398l1.645-9.551c.155-.912-.37-1.762-1.165-1.895zM1086.279 465.952c-.796-.138-1.569.489-1.727 1.4l-1.629 9.555c-.155.913.37 1.761 1.167 1.893.797.132 1.563-.5 1.717-1.41l1.627-9.539c.158-.911-.36-1.761-1.155-1.899zM1082.433 489.119c-.798-.124-1.56.518-1.702 1.434a792.774 792.774 0 0 0-1.403 9.603c-.128.918.424 1.752 1.223 1.86.801.108 1.546-.545 1.674-1.458.447-3.19.91-6.378 1.397-9.563.142-.912-.391-1.752-1.189-1.876z"/><path style="fill:#ffb002" d="M404.702 565.49c.368-.895 1.271-1.363 2.017-1.045.74.315 1.049 1.279.69 2.151a146.085 146.085 0 0 0-3.429 9.297c-.292.899-1.154 1.43-1.923 1.187-.771-.244-1.152-1.186-.854-2.105a150.077 150.077 0 0 1 3.499-9.485zM397.449 588.66c.243-.936 1.075-1.523 1.857-1.309.775.212 1.213 1.125.975 2.038a145.478 145.478 0 0 0-2.138 9.676c-.167.93-.95 1.573-1.744 1.436-.797-.137-1.302-1.019-1.131-1.97.622-3.31 1.333-6.606 2.181-9.871zM410.883 552.456a103.217 103.217 0 0 1 5.317-8.65c.543-.808 1.545-1.06 2.198-.589.656.473.735 1.467.212 2.245a100.07 100.07 0 0 0-5.163 8.401c-.448.827-1.385 1.197-2.101.82-.714-.374-.926-1.374-.463-2.227zM425.419 532.601a62.098 62.098 0 0 1 7.78-6.653c.805-.568 1.817-.489 2.27.19.443.664.197 1.649-.56 2.183a59.226 59.226 0 0 0-7.419 6.346c-.649.668-1.653.761-2.242.208-.588-.554-.512-1.572.171-2.274zM446.09 519.058a51.407 51.407 0 0 1 9.963-2.552c.486-.074.949.015 1.299.236.352.229.589.572.636.972.047.401-.101.784-.372 1.078a1.895 1.895 0 0 1-1.12.604 48.529 48.529 0 0 0-9.398 2.407c-.872.302-1.81-.007-2.118-.752-.31-.746.176-1.668 1.11-1.993zM470.645 516.199c1.695.193 3.389.401 5.062.72l1.258.221c.422.088.847.197 1.27.295l1.271.304c.421.11.83.258 1.246.385.957.302 1.497 1.168 1.205 1.94-.28.739-1.213 1.124-2.079.851-.382-.117-.759-.254-1.144-.355l-1.164-.276c-.389-.09-.772-.191-1.167-.273l-1.207-.212c-1.606-.307-3.226-.505-4.846-.69-.926-.079-1.632-.797-1.576-1.602.054-.806.892-1.392 1.871-1.308zM491.472 525.119c.458-.665 1.476-.734 2.273-.152 2.742 2.056 5.283 4.342 7.675 6.759.67.709.734 1.731.144 2.281-.59.551-1.591.446-2.233-.235-2.303-2.327-4.736-4.513-7.335-6.462-.748-.544-.982-1.526-.524-2.191zM508.494 542.287c.643-.487 1.651-.264 2.211.526l1.481 2.052 1.428 2.086c.967 1.382 1.847 2.816 2.772 4.224.51.819.36 1.831-.327 2.253-.688.424-1.645.112-2.146-.691-.908-1.381-1.774-2.793-2.721-4.146l-1.399-2.045-1.449-2.006c-.543-.77-.494-1.765.15-2.253zM521.488 562.768c.708-.389 1.652-.017 2.108.831 1.601 2.951 3.114 5.946 4.603 8.95.432.858.169 1.851-.555 2.201-.73.354-1.643-.062-2.07-.911-1.475-2.975-2.972-5.939-4.554-8.855-.449-.835-.24-1.827.468-2.216zM537.52 596.923c-.747.308-1.647-.157-2.01-1.037l-1.943-4.597-1.992-4.574c-.389-.868-.109-1.84.628-2.17.736-.331 1.654.111 2.047.986l2.005 4.605 1.954 4.625c.367.886.058 1.855-.689 2.162zM546.408 619.472c-.754.289-1.642-.198-1.983-1.087l-1.826-4.644-1.876-4.623c-.367-.878-.063-1.842.682-2.154.744-.312 1.651.152 2.021 1.037l1.889 4.654 1.838 4.673c.342.895.009 1.856-.745 2.144z"/></svg>